<svg width="95" height="22" viewBox="0 0 95 22" fill="none" xmlns="http://www.w3.org/2000/svg">
<path fill-rule="evenodd" clip-rule="evenodd" d="M11.0526 22C17.1591 22 22.1052 17.0775 22.1052 11C22.1052 4.9225 17.1591 0 11.0526 0C4.94603 0 0 4.9225 0 11C0 17.0775 4.94603 22 11.0526 22ZM9.40011 11H12.5317C13.4435 11 14.1896 10.2575 14.1896 9.35C14.1896 8.4425 13.4435 7.7 12.5317 7.7H9.40011V11ZM7.18959 5.5H12.5317C14.6685 5.5 16.4001 7.22333 16.4001 9.35C16.4001 11.4767 14.6685 13.2 12.5317 13.2H9.40011V16.5H7.18959V5.5Z" fill="#2C3242"/>
<path d="M33.7289 9.65248C33.7289 9.04748 33.2592 8.68081 32.6513 8.68081H31.0211V10.615H32.6513C33.2592 10.615 33.7289 10.2483 33.7289 9.65248ZM29.4829 14.6666V7.33331H32.8724C34.4474 7.33331 35.3039 8.38748 35.3039 9.65248C35.3039 10.9083 34.4381 11.9625 32.8724 11.9625H31.0303V14.6666H29.4829Z" fill="#2C3242"/>
<path d="M36.2236 14.6663V9.32212H37.6052V10.028C37.9828 9.57879 38.6276 9.19379 39.2815 9.19379V10.5321C39.1802 10.5138 39.0605 10.5046 38.9039 10.5046C38.4434 10.5046 37.8355 10.7613 37.6144 11.1005V14.6755H36.2236V14.6663Z" fill="#2C3242"/>
<path d="M43.9166 11.9255C43.9166 11.1188 43.4377 10.413 42.5719 10.413C41.7153 10.413 41.2364 11.1188 41.2364 11.9255C41.2364 12.7505 41.7153 13.4471 42.5719 13.4471C43.4377 13.4471 43.9166 12.7413 43.9166 11.9255ZM39.7996 11.9255C39.7996 10.4496 40.8403 9.19379 42.5627 9.19379C44.3035 9.19379 45.3443 10.4496 45.3443 11.9255C45.3443 13.4013 44.3035 14.6663 42.5627 14.6663C40.8403 14.6663 39.7996 13.4013 39.7996 11.9255Z" fill="#2C3242"/>
<path d="M49.9897 12.8516V11.0091C49.7594 10.6608 49.2621 10.4133 48.8108 10.4133C48.0187 10.4133 47.4752 11.0275 47.4752 11.9258C47.4752 12.8333 48.0187 13.4475 48.8108 13.4475C49.2621 13.4475 49.7594 13.2 49.9897 12.8516ZM49.9897 14.6666V13.8691C49.5752 14.3916 49.0134 14.6666 48.3686 14.6666C47.0515 14.6666 46.0476 13.6766 46.0476 11.9258C46.0476 10.23 47.0331 9.19415 48.3686 9.19415C48.9857 9.19415 49.5752 9.45081 49.9897 9.99165V7.33331H51.3805V14.6666H49.9897Z" fill="#2C3242"/>
<path d="M56.271 14.6669V13.8785C55.9117 14.2635 55.2854 14.6669 54.4289 14.6669C53.2776 14.6669 52.7341 14.0435 52.7341 13.026V9.32269H54.1157V12.4852C54.1157 13.2094 54.4933 13.4477 55.0828 13.4477C55.617 13.4477 56.0407 13.1544 56.2802 12.8519V9.32269H57.6617V14.6669H56.271Z" fill="#2C3242"/>
<path d="M58.6829 11.9255C58.6829 10.3305 59.8526 9.19379 61.4644 9.19379C62.5421 9.19379 63.1868 9.66129 63.5368 10.138L62.6342 10.9813C62.3855 10.6146 62.0078 10.4221 61.5289 10.4221C60.6907 10.4221 60.1105 11.0271 60.1105 11.9346C60.1105 12.8421 60.7 13.4563 61.5289 13.4563C62.0078 13.4563 62.3855 13.2363 62.6342 12.888L63.5368 13.7313C63.1868 14.208 62.5421 14.6846 61.4644 14.6846C59.8526 14.6663 58.6829 13.5296 58.6829 11.9255Z" fill="#2C3242"/>
<path d="M64.7215 13.2279V10.5146H63.8557V9.31378H64.7215V7.89294H66.1031V9.32294H67.1623V10.5238H66.1031V12.8704C66.1031 13.2096 66.2781 13.4571 66.582 13.4571C66.7846 13.4571 66.9873 13.3838 67.061 13.2921L67.3557 14.3371C67.1531 14.5204 66.7846 14.6763 66.2044 14.6763C65.2281 14.6671 64.7215 14.1721 64.7215 13.2279Z" fill="#2C3242"/>
<path d="M75.9921 14.6666V11.5041H72.575V14.6666H71.0369V7.33331H72.575V10.1658H75.9921V7.33331H77.5487V14.6666H75.9921Z" fill="#2C3242"/>
<path d="M82.486 14.6669V13.8785C82.1268 14.2635 81.5005 14.6669 80.6439 14.6669C79.4926 14.6669 78.9492 14.0435 78.9492 13.026V9.32269H80.3308V12.4852C80.3308 13.2094 80.7084 13.4477 81.2979 13.4477C81.8321 13.4477 82.2558 13.1544 82.4953 12.8519V9.32269H83.8768V14.6669H82.486Z" fill="#2C3242"/>
<path d="M88.7582 14.6663V11.3846C88.7582 10.6605 88.3806 10.413 87.7911 10.413C87.2477 10.413 86.8332 10.7155 86.5937 11.018V14.6663H85.2122V9.32212H86.5937V9.99129C86.9345 9.60629 87.5792 9.19379 88.4266 9.19379C89.5871 9.19379 90.1398 9.84462 90.1398 10.853V14.6663H88.7582Z" fill="#2C3242"/>
<path d="M91.8045 13.2279V10.5146H90.9387V9.31378H91.8045V7.89294H93.1861V9.32294H94.2453V10.5238H93.1861V12.8704C93.1861 13.2096 93.3611 13.4571 93.665 13.4571C93.8677 13.4571 94.0703 13.3838 94.144 13.2921L94.4387 14.3371C94.2361 14.5204 93.8677 14.6763 93.2874 14.6763C92.3111 14.6671 91.8045 14.1721 91.8045 13.2279Z" fill="#2C3242"/>
</svg>
