<svg width="73" height="22" viewBox="0 0 73 22" fill="none" xmlns="http://www.w3.org/2000/svg">
<path d="M50.9971 5.24872H49.4436L49.4507 16.7435H55.7429V15.3216H51.0042L50.9971 5.24872Z" fill="#2C3242"/>
<path d="M61.7355 14.7268C61.4865 14.9835 61.1876 15.1874 60.8569 15.326C60.5261 15.4646 60.1705 15.5351 59.8115 15.5332C58.6286 15.5332 58.1511 14.9531 58.1511 14.1963C58.1511 13.0574 58.9493 12.5127 60.6452 12.5127C61.0126 12.5141 61.3794 12.5425 61.7426 12.5976V14.7268H61.7355ZM60.125 7.75918C58.9174 7.75547 57.7469 8.17366 56.8186 8.94049L57.3673 9.88837C58.0015 9.52053 58.7782 9.1527 59.897 9.1527C61.1726 9.1527 61.7355 9.80348 61.7355 10.8928V11.4517C61.3795 11.3962 61.0198 11.3679 60.6595 11.3668C57.9374 11.3668 56.5549 12.3146 56.5549 14.2953C56.5549 16.0708 57.6523 16.9621 59.3127 16.9621C60.4315 16.9621 61.5075 16.4528 61.878 15.6251L62.1631 16.7499H63.2605V10.8645C63.2533 9.00415 62.441 7.75918 60.125 7.75918Z" fill="#2C3242"/>
<path d="M68.2674 15.5862C67.6831 15.5862 67.17 15.5154 66.7852 15.3386V10.0263C67.3125 9.5877 67.9681 9.26938 68.8018 9.26938C70.3054 9.26938 70.8826 10.3234 70.8826 12.0281C70.8826 14.4473 69.9491 15.5862 68.2674 15.5862ZM68.923 7.76269C68.5199 7.76022 68.1208 7.84282 67.7522 8.00501C67.3837 8.16721 67.0541 8.40529 66.7852 8.70349V7.2166L66.7781 5.25012H65.2603L65.2674 16.4619C66.0299 16.7802 67.0702 16.95 68.2033 16.95C71.1035 16.95 72.5002 15.1108 72.5002 11.9347C72.4931 9.42359 71.2033 7.76128 68.923 7.76128" fill="#2C3242"/>
<path d="M34.0863 6.49716C35.4616 6.49716 36.3523 6.94987 36.9295 7.40966L37.5994 6.25665C36.6944 5.4644 35.4687 5.03998 34.1575 5.03998C30.8511 5.03998 28.5352 7.04183 28.5352 11.0809C28.5352 15.311 31.0364 16.9591 33.8939 16.9591C35.0761 16.9618 36.2476 16.736 37.3428 16.2942L37.3072 11.7741V10.3523H33.0644V11.7741H35.7723L35.8079 15.2049C35.4516 15.3817 34.8388 15.5232 34.005 15.5232C31.7105 15.5232 30.1713 14.0872 30.1713 11.0668C30.1642 7.98971 31.7532 6.49716 34.0834 6.49716" fill="#2C3242"/>
<path d="M45.0218 5.24689H43.5039L43.511 7.178V13.8485C43.511 15.7088 44.3234 16.9538 46.6394 16.9538C46.9526 16.9546 47.2651 16.9262 47.5729 16.8689V15.5178C47.3394 15.5529 47.1035 15.5695 46.8674 15.5674C45.5919 15.5674 45.0289 14.9166 45.0289 13.8272V9.22936H47.5729V7.97025H45.031L45.0239 5.24689H45.0218Z" fill="#2C3242"/>
<path d="M39.6448 16.744H41.1625V7.9726H39.6448V16.744Z" fill="#2C3242"/>
<path d="M39.6448 6.76292H41.1625V5.25623H39.6448V6.76292Z" fill="#2C3242"/>
<path d="M24.0143 12.5781L22.6668 8.46685L20.0003 0.31231C19.9696 0.221335 19.9108 0.142236 19.8324 0.0861943C19.7539 0.0301522 19.6597 0 19.5631 0C19.4664 0 19.3722 0.0301522 19.2938 0.0861943C19.2153 0.142236 19.1566 0.221335 19.1259 0.31231L16.4608 8.4619H7.6004L4.93387 0.31231C4.90317 0.221335 4.84445 0.142236 4.766 0.0861943C4.68755 0.0301522 4.59334 0 4.49669 0C4.40004 0 4.30583 0.0301522 4.22738 0.0861943C4.14894 0.142236 4.09021 0.221335 4.05952 0.31231L1.39797 8.4619L0.049745 12.5781C-0.0100085 12.7608 -0.0100727 12.9577 0.0495613 13.1405C0.109195 13.3233 0.225479 13.4827 0.381814 13.596L12.0299 21.9995L23.678 13.596C23.835 13.4832 23.952 13.324 24.0124 13.1412C24.0728 12.9584 24.0735 12.7613 24.0143 12.5781Z" fill="#2C3242"/>
<path d="M12.031 21.9917L16.4591 8.46112H7.60156L12.031 21.9917Z" fill="#2C3242"/>
<path d="M12.0234 21.9924L7.59386 8.46112H1.39429L12.0234 21.9924Z" fill="#4F5461"/>
<path d="M1.39309 8.46674L0.0448622 12.578C-0.0148913 12.7607 -0.0149555 12.9575 0.0446785 13.1403C0.104312 13.3231 0.220597 13.4826 0.376932 13.5959L12.025 22.0001L1.39309 8.46674Z" fill="#757A8A"/>
<path d="M1.39282 8.46843H7.60024L4.92872 0.31884C4.89802 0.227865 4.8393 0.148767 4.76085 0.0927246C4.6824 0.0366825 4.58819 0.00653076 4.49154 0.00653076C4.39489 0.00653076 4.30068 0.0366825 4.22223 0.0927246C4.14378 0.148767 4.08506 0.227865 4.05437 0.31884L1.39282 8.46843Z" fill="#2C3242"/>
<path d="M12.0293 21.9924L16.4574 8.46112H22.6641L12.0293 21.9924Z" fill="#4F5461"/>
<path d="M22.6632 8.46674L24.0121 12.578C24.0719 12.7607 24.0719 12.9575 24.0123 13.1403C23.9527 13.3231 23.8364 13.4826 23.6801 13.5959L12.0312 21.9923L22.6632 8.46674Z" fill="#757A8A"/>
<path d="M22.6691 8.46843H16.4609L19.1275 0.31884C19.1582 0.227865 19.2169 0.148767 19.2953 0.0927246C19.3738 0.0366825 19.468 0.00653076 19.5646 0.00653076C19.6613 0.00653076 19.7555 0.0366825 19.834 0.0927246C19.9124 0.148767 19.9711 0.227865 20.0018 0.31884L22.6684 8.46843H22.6691Z" fill="#2C3242"/>
</svg>
