<svg width="29" height="32" viewBox="0 0 29 32" fill="none" xmlns="http://www.w3.org/2000/svg">
<path d="M23.2809 6.543C23.395 7.37952 24.6623 8.5068 25.0054 8.48044C25.2349 8.48044 25.3223 7.38831 25.3223 6.543C25.3223 6.05854 25.3492 5.67972 25.0938 5.59165C24.6889 6.411 23.6239 6.57834 23.2809 6.543ZM23.3511 6.17296C24.266 6.17296 25.1028 5.44228 25.1028 4.79926C25.1028 4.49972 24.9617 4.2535 24.6006 4.20957C24.6623 4.28884 24.6887 4.35055 24.6887 4.49094C24.6887 4.97559 23.95 5.51297 23.1485 5.51297C22.8578 5.51297 22.7702 5.71506 22.7702 5.8207C22.7704 6.06733 23.0076 6.17296 23.3511 6.17296ZM23.1573 5.17808C23.0346 5.17808 22.858 5.17808 22.7618 4.98438C22.6819 4.82582 22.7087 4.57041 22.559 4.45579C22.7087 4.49972 22.867 4.49972 22.9901 4.49972C23.3864 4.49972 23.765 4.22714 24.055 4.22714C24.2488 4.22714 24.3099 4.35055 24.3099 4.47336C24.3099 4.86077 23.5275 5.17808 23.1573 5.17808ZM3.47067 12.0817C3.76943 12.0817 3.70737 10.2501 4.19173 10.2501C4.30648 10.2501 4.34161 10.3648 4.34161 10.5053C4.34161 10.9193 4.13904 11.527 4.13904 11.8617C4.13904 12.0288 4.18315 12.0817 4.26218 12.0817C4.47372 12.0817 4.84313 10.0652 5.20416 10.0652C5.31852 10.0652 5.3712 10.1796 5.3712 10.2943C5.3712 10.7166 4.83435 11.932 4.83435 12.275C4.83435 12.328 4.85211 12.3719 4.89582 12.3719C5.11615 12.3719 5.55641 11.4209 5.69711 10.9457C5.77614 10.699 5.88171 10.567 5.9783 10.567C6.06632 10.567 6.14555 10.6641 6.14555 10.8664C6.14555 11.3419 5.70589 12.4604 5.31832 13.2088C5.01896 13.7897 4.55276 14.6266 4.55276 15.0935C4.55276 15.3312 4.59706 15.5776 4.93973 15.8771C4.37653 15.842 4.14802 15.7893 3.93647 15.3489C2.99469 17.2241 5.67036 17.04 4.75512 18.704C4.58828 18.4047 3.26791 18.0963 3.26791 16.353C3.26791 14.8467 4.58828 13.9663 4.58828 13.341C4.58828 13.2178 4.54397 13.1122 4.42982 13.0155C4.13904 12.7689 4.13046 12.5662 3.90155 12.5662C3.73451 12.5662 3.53214 12.9538 3.74309 13.2969C3.81354 13.4113 3.87541 13.482 3.87541 13.5878C3.87541 13.8345 3.48843 14.4946 3.21542 14.4946C2.9426 14.4946 2.73125 13.8169 2.73125 12.7249C2.73125 11.756 2.95118 10.7789 3.2242 10.7789C3.30323 10.7789 3.32977 10.8316 3.32977 10.9021C3.32977 11.0166 3.29445 11.245 3.29445 11.6328C3.29425 12.0464 3.39124 12.0817 3.47067 12.0817ZM16.9526 3.42516C17.0937 3.42516 17.1203 3.76904 17.1464 3.97153C17.164 4.07717 17.1815 4.08615 17.2258 4.08615C17.3314 4.08615 17.4986 3.68077 17.6126 3.68077C17.7806 3.68077 18.2293 4.14786 18.9769 4.14786C20.0418 4.14786 21.0455 3.399 21.0455 2.07822C21.0455 0.801176 20.1474 0.0525198 18.9066 0.0525198C18.3169 0.0525198 17.8858 0.343076 17.6569 0.343076C17.5162 0.351862 17.3049 0 17.1989 0C17.1548 0 17.1113 0.0876662 17.1113 0.237437C17.1113 0.334289 17.1113 0.642817 17.0053 0.642817C16.7944 0.642817 15.9759 0.0347469 15.9759 0.25521C15.9759 0.4579 16.5215 1.07456 16.5215 1.23272C16.5215 1.39147 15.9849 1.54104 15.9849 1.64668C15.9849 1.84059 16.5571 1.87573 16.5571 2.12236C16.5571 2.36858 15.9579 2.56248 15.9579 2.7476C15.9579 2.89737 16.5571 2.79153 16.5571 2.97665C16.5571 3.16157 16.117 3.77763 16.117 3.95396C16.117 3.99829 16.1256 3.99829 16.1611 3.99829C16.3277 3.99809 16.8299 3.42516 16.9526 3.42516ZM5.66178 16.4409C5.6528 16.2647 5.77614 16.0972 5.96074 16.0796C6.14555 16.0531 6.31299 16.194 6.33035 16.379C6.34831 16.5641 6.216 16.7228 6.03099 16.749C5.84659 16.7582 5.67954 16.6258 5.66178 16.4409ZM4.68507 16.7139C4.7204 17.0134 5.0016 17.2416 5.31852 17.2067C5.43287 17.1977 5.53884 17.1626 5.60889 17.1182C5.67954 17.4004 5.89907 17.5765 6.22478 17.5412C6.55048 17.515 6.77959 17.2416 6.74426 16.9165C6.74426 16.8287 6.71792 16.7758 6.69158 16.7139L6.75324 16.7051C7.06099 16.6699 7.29848 16.3879 7.27193 16.0796C7.23701 15.7623 6.94683 15.5335 6.64747 15.5598C6.53292 15.5864 6.43612 15.6213 6.36587 15.683C6.28644 15.4192 6.05753 15.2078 5.73223 15.2431C5.42409 15.2607 5.1862 15.5598 5.22152 15.8855C5.22152 15.9298 5.23889 16.0003 5.26563 16.0618L5.20396 16.0704C4.89582 16.1146 4.65853 16.3704 4.68507 16.7139ZM24.2927 0.563539C24.2924 0.592544 24.2978 0.621326 24.3087 0.648193C24.3197 0.675061 24.3358 0.699472 24.3563 0.719992C24.3768 0.740513 24.4012 0.756728 24.428 0.767686C24.4549 0.778644 24.4836 0.784123 24.5126 0.783802C24.6358 0.783802 24.733 0.68715 24.733 0.563539C24.733 0.440127 24.636 0.343076 24.5126 0.343076C24.3891 0.343076 24.2927 0.440127 24.2927 0.563539ZM19.3822 8.91158C19.3822 9.11427 19.5495 9.28161 19.7514 9.28161C19.8493 9.28103 19.943 9.24186 20.0122 9.17258C20.0814 9.10331 20.1205 9.00952 20.121 8.91158C20.1203 8.8137 20.0812 8.72003 20.012 8.65082C19.9429 8.58161 19.8492 8.54242 19.7514 8.54174C19.5495 8.54174 19.3822 8.70949 19.3822 8.91158ZM19.4084 10.0209C19.4083 10.0752 19.4189 10.129 19.4397 10.1793C19.4604 10.2295 19.4908 10.2751 19.5292 10.3136C19.5675 10.352 19.6131 10.3826 19.6633 10.4034C19.7134 10.4242 19.7672 10.435 19.8215 10.435C19.8758 10.4351 19.9296 10.4244 19.9797 10.4037C20.0299 10.383 20.0756 10.3525 20.114 10.3141C20.1524 10.2758 20.1829 10.2302 20.2038 10.18C20.2246 10.1298 20.2353 10.076 20.2354 10.0217C20.2355 9.91194 20.192 9.80666 20.1146 9.72899C20.0371 9.65131 19.9319 9.60762 19.8223 9.60751C19.7126 9.60741 19.6074 9.6509 19.5298 9.72842C19.4521 9.80594 19.4085 9.91114 19.4084 10.0209ZM18.1411 10.7695C18.1413 10.9306 18.2054 11.085 18.3192 11.1989C18.4331 11.3128 18.5874 11.3769 18.7484 11.3772C18.9093 11.3767 19.0634 11.3125 19.1771 11.1987C19.2909 11.0848 19.3549 10.9305 19.3553 10.7695C19.3549 10.6086 19.2908 10.4543 19.1771 10.3405C19.0634 10.2267 18.9092 10.1626 18.7484 10.1623C18.5874 10.1624 18.4331 10.2264 18.3193 10.3403C18.2054 10.4541 18.1413 10.6085 18.1411 10.7695ZM18.4666 9.52823C18.4666 9.72234 18.6248 9.8807 18.8186 9.8807C19.0124 9.8807 19.1711 9.72234 19.1711 9.52823C19.1711 9.33453 19.0124 9.17597 18.8186 9.17597C18.6248 9.17597 18.4666 9.33453 18.4666 9.52823ZM17.3132 10.2326C17.3132 10.326 17.3504 10.4157 17.4164 10.4818C17.4825 10.5479 17.5721 10.585 17.6655 10.585C17.7589 10.585 17.8485 10.5479 17.9146 10.4818C17.9806 10.4157 18.0177 10.326 18.0177 10.2326C18.0147 10.1411 17.9762 10.0545 17.9105 9.99089C17.8448 9.92731 17.7569 9.89176 17.6655 9.89176C17.5741 9.89176 17.4862 9.92731 17.4205 9.99089C17.3548 10.0545 17.3163 10.1411 17.3132 10.2326ZM18.2203 8.17211C18.2212 8.32129 18.2809 8.46411 18.3863 8.56962C18.4917 8.67513 18.6344 8.73485 18.7835 8.73585C18.9326 8.7348 19.0752 8.67506 19.1806 8.56956C19.286 8.46406 19.3457 8.32128 19.3467 8.17211C19.3457 8.02294 19.2861 7.88015 19.1807 7.77467C19.0753 7.66919 18.9326 7.60951 18.7835 7.60857C18.6344 7.60951 18.4917 7.66919 18.3863 7.77467C18.2809 7.88015 18.2212 8.02294 18.2203 8.17211ZM18.8805 7.08876C18.8794 7.13339 18.8872 7.17779 18.9034 7.21935C18.9197 7.26091 18.9441 7.2988 18.9753 7.33077C19.0064 7.36275 19.0436 7.38817 19.0847 7.40554C19.1258 7.42291 19.17 7.43188 19.2146 7.43192C19.2592 7.43196 19.3033 7.42307 19.3445 7.40577C19.3856 7.38848 19.4229 7.36312 19.454 7.3312C19.4852 7.29928 19.5097 7.26144 19.5261 7.21991C19.5424 7.17838 19.5503 7.13399 19.5493 7.08936C19.5472 7.00204 19.5111 6.91897 19.4487 6.85791C19.3863 6.79685 19.3025 6.76262 19.2152 6.76254C19.1279 6.76247 19.044 6.79654 18.9815 6.85749C18.9189 6.91844 18.8827 7.00144 18.8805 7.08876ZM17.2871 7.93407C17.2871 8.02289 17.3224 8.10807 17.3851 8.17087C17.4479 8.23368 17.533 8.26896 17.6218 8.26896C17.7105 8.26896 17.7957 8.23368 17.8584 8.17087C17.9212 8.10807 17.9565 8.02289 17.9565 7.93407C17.9565 7.74895 17.8068 7.59978 17.6216 7.59978C17.4368 7.59978 17.2871 7.74895 17.2871 7.93407ZM17.243 9.07892C17.243 9.37846 17.4807 9.6165 17.7804 9.6165C17.8511 9.61687 17.921 9.60321 17.9864 9.57632C18.0517 9.54943 18.111 9.50983 18.1609 9.45983C18.2108 9.40982 18.2503 9.35041 18.277 9.28502C18.3038 9.21964 18.3174 9.14958 18.3169 9.07892C18.3173 9.00829 18.3038 8.93826 18.277 8.87291C18.2502 8.80756 18.2107 8.74818 18.1608 8.69822C18.1109 8.64825 18.0516 8.60869 17.9863 8.58183C17.921 8.55497 17.851 8.54135 17.7804 8.54174C17.7098 8.54127 17.6397 8.55483 17.5743 8.58165C17.509 8.60847 17.4495 8.64801 17.3996 8.69798C17.3496 8.74795 17.31 8.80735 17.2831 8.87274C17.2562 8.93814 17.2426 9.00822 17.243 9.07892ZM16.1346 9.64286C16.1346 9.91604 16.3633 10.1447 16.6363 10.1447C16.9087 10.1447 17.1376 9.91604 17.1376 9.64286C17.1376 9.36988 16.9089 9.14083 16.6363 9.14083C16.3633 9.14083 16.1346 9.36988 16.1346 9.64286ZM16.4335 8.40116C16.4335 8.59486 16.5922 8.75362 16.786 8.75362C16.8792 8.7532 16.9685 8.71591 17.0344 8.64988C17.1002 8.58386 17.1374 8.49445 17.1376 8.40116C17.1376 8.20725 16.9794 8.0487 16.786 8.0487C16.6926 8.04891 16.6031 8.0861 16.5371 8.15215C16.471 8.2182 16.4338 8.30773 16.4335 8.40116ZM15.2632 21.3817C15.2632 21.5746 15.4215 21.733 15.6153 21.733C15.8083 21.733 15.9669 21.5746 15.9669 21.3817C15.9668 21.2884 15.9297 21.1988 15.8638 21.1327C15.7979 21.0666 15.7086 21.0293 15.6153 21.0289C15.4215 21.0289 15.2632 21.1872 15.2632 21.3817ZM5.7941 6.78922C5.7941 6.98313 5.95216 7.14168 6.14555 7.14168C6.23892 7.14147 6.32841 7.10428 6.39446 7.03823C6.4605 6.97218 6.49773 6.88265 6.49799 6.78922C6.49757 6.69589 6.46028 6.60652 6.39425 6.5406C6.32822 6.47468 6.23882 6.43757 6.14555 6.43736C5.95216 6.43736 5.7941 6.59592 5.7941 6.78922ZM5.33608 5.99683C5.33634 6.09026 5.37357 6.17979 5.43961 6.24584C5.50566 6.31189 5.59515 6.34908 5.68852 6.34929C5.88171 6.34929 6.03977 6.19074 6.03977 5.99683C6.03977 5.80313 5.88171 5.64437 5.68852 5.64437C5.59515 5.64458 5.50566 5.68178 5.43961 5.74783C5.37357 5.81387 5.33634 5.9034 5.33608 5.99683ZM5.71467 14.6618C6.08408 14.6618 6.39242 14.3886 6.39242 13.7813V12.8833C6.39242 12.5396 6.41836 12.1518 6.64747 11.8792C6.62113 11.9939 6.62113 12.1171 6.62113 12.2311C6.62113 12.9887 7.04342 13.5084 7.04342 14.2396C7.04342 14.5122 6.96439 14.662 6.75324 14.662C6.55048 14.662 6.56824 14.4771 6.52433 14.4771C6.48921 14.4771 6.43632 14.5915 6.43632 14.7145C6.43632 14.8998 6.56844 15.1904 6.93825 15.1904C7.25477 15.1904 7.51002 14.8998 7.51002 14.5737C7.51002 13.7815 6.89454 12.9011 6.89454 12.0556C6.89454 11.6855 6.99054 11.4391 7.06997 11.245C7.06997 12.9979 8.55738 14.275 8.55738 15.0057C8.55738 15.173 8.43425 15.3052 8.24924 15.3052C8.04728 15.3052 7.95028 15.1466 7.95028 15.0232C7.95028 14.9613 7.9415 14.944 7.91516 14.944C7.86227 14.944 7.70361 15.1201 7.70361 15.3491C7.70361 15.6393 7.9413 15.9918 8.38136 15.9918C8.88309 15.9918 9.1563 15.569 9.1563 15.1904C9.1563 14.266 7.35176 12.8653 7.35176 11.3684C7.35176 11.1128 7.39567 10.6992 7.58067 10.3823C6.41856 11.1304 6.05793 12.1261 6.05793 12.9977C6.05793 13.7548 6.03139 14.1336 5.64442 14.1336C5.44205 14.1336 5.38936 13.9487 5.31892 13.9487C5.26603 13.9487 5.23949 14.1074 5.23949 14.1514C5.23889 14.4769 5.47678 14.6618 5.71467 14.6618ZM20.9662 5.86483C21.3532 5.86483 21.644 5.6885 21.644 5.58287C21.644 5.54752 21.5909 5.52176 21.4763 5.52176C21.3622 5.52176 21.1329 5.51297 20.7018 5.44228C20.3318 5.38077 20.05 5.23999 19.9444 5.23999C19.9089 5.23999 19.8917 5.25736 19.8917 5.28372C19.8921 5.51277 20.3146 5.86483 20.9662 5.86483ZM19.0477 4.74635C19.1619 4.67585 19.6542 4.79028 20.2975 4.47316C20.3671 4.43385 20.4456 4.41276 20.5256 4.41186C20.8343 4.41186 20.7547 4.76392 21.0369 4.76392C21.2568 4.76392 21.5386 4.579 21.7058 4.579C21.9689 4.579 22.3479 5.40693 22.3479 5.79434C22.3479 6.24326 21.6707 6.51644 20.8694 6.51644C19.6985 6.51644 18.9948 5.4948 18.9948 4.83421C18.9948 4.78149 19.0212 4.76392 19.0477 4.74635ZM5.89887 17.9817C5.60869 18.0524 5.14229 18.5103 5.14229 19.233C5.14229 20.0951 6.06632 21.4254 7.58906 21.4254C8.8741 21.4254 9.19043 20.5356 9.19043 19.9365C9.19043 18.6074 8.37198 17.6734 7.30726 17.6734C6.7263 17.6734 6.20701 18.0963 6.20701 18.7216C6.20701 19.3031 6.64707 20.1746 7.69443 20.1746C8.18698 20.1746 8.47755 19.8219 8.47755 19.4167C8.47755 19.0213 8.11633 18.475 7.58866 18.475C7.43 18.475 7.31564 18.5806 7.31564 18.7481C7.31564 18.9594 7.60642 19.1709 7.96725 19.1709C8.05526 19.1709 8.12511 19.1533 8.16063 19.1355C8.17819 19.1621 8.18698 19.2062 8.18698 19.2414C8.18698 19.4433 7.99379 19.5665 7.69443 19.5665C7.24539 19.5665 6.81431 19.2326 6.81431 18.7038C6.81431 18.3867 7.08673 18.1574 7.48328 18.1574C8.26601 18.1574 8.73281 18.8538 8.73281 19.5487C8.73281 20.1746 8.38934 20.5354 7.68565 20.5354C6.27766 20.5356 5.59133 19.2677 5.89887 17.9817ZM5.01916 8.40994C4.81659 8.46286 4.39449 8.70949 4.39449 9.14941C4.39449 9.46673 4.64077 9.66942 4.94871 9.66942C5.10717 9.66942 5.22172 9.63387 5.29197 9.58115C5.0455 9.34352 4.95749 9.07912 4.95749 8.81532C4.95749 8.63021 4.98383 8.51558 5.01916 8.40994ZM2.86297 8.53316C2.85419 8.57709 2.85419 8.62122 2.85419 8.66515C2.85419 9.07892 3.07432 9.30797 3.3651 9.30797C3.58483 9.30797 3.84008 9.17577 4.06879 8.88502C3.96417 8.90289 3.8582 8.91171 3.75207 8.91138C3.42617 8.91158 3.07432 8.82391 2.86297 8.53316ZM2.55523 9.31696C2.55523 9.98614 2.757 10.3031 3.11843 10.3031C3.40002 10.3031 3.77841 10.1006 4.22745 9.71335C3.88399 9.79263 3.62035 9.84535 3.38266 9.84535C3.06554 9.84535 2.81887 9.72214 2.55523 9.31696ZM15.9494 23.1424C16.3719 23.1424 16.3453 23.1071 16.4778 23.1071C16.6099 23.1071 16.6181 23.1864 16.6181 23.2391C16.6181 23.4332 16.1867 23.6706 15.4215 23.6706C14.9721 23.6706 14.6996 23.4332 14.6208 23.1688C14.1801 23.4506 13.5118 23.706 12.8522 23.706C11.0479 23.706 10.5898 22.922 10.0268 22.6664C9.59556 22.4726 8.93557 22.8513 8.01175 21.8208C8.13449 21.8472 8.30173 21.856 8.43405 21.856C9.24371 21.856 9.67499 21.4604 9.67499 20.8264C9.67499 20.7471 9.66621 20.6586 9.65743 20.5797C9.9041 20.6764 10.4671 21.0995 10.5988 21.8474C10.6166 21.9355 10.9774 22.0147 11.2065 22.0147C11.523 22.0147 11.928 21.8825 11.9896 21.3635C13.0458 21.2759 13.7581 20.65 13.9077 19.8572C14.2863 19.9807 14.717 20.3241 14.823 20.5005C14.9723 20.4473 15.1485 20.4212 15.351 20.4212C15.6328 20.4212 15.9494 20.4741 16.3279 20.5887C16.3455 20.4741 16.3635 20.3331 16.5397 20.3331C16.8035 20.3331 16.7331 20.6239 16.8211 20.7912C16.8652 20.8793 17.0849 20.932 17.0849 21.1085C17.0849 21.2761 16.9438 21.3374 16.8564 21.3374C16.8209 21.3374 16.777 21.3288 16.7504 21.32C16.5746 21.3819 16.5656 22.6492 15.8262 22.6492C15.2806 22.6492 14.7789 22.2001 14.5595 21.6363C14.4977 21.4694 14.3656 21.3637 14.2422 21.3637C14.1011 21.3637 14.0223 21.3907 13.855 21.5748C13.3803 22.0944 12.5884 22.5435 11.6114 22.5435C11.3123 22.5435 11.0748 22.5174 11.0127 22.5174C10.9776 22.5174 10.9776 22.5262 10.9776 22.535C10.9776 22.5967 11.277 22.8343 11.9282 22.8343C13.4769 22.8343 13.855 21.9622 14.1013 21.9622C14.137 21.9622 14.2424 21.9622 14.3041 22.1032C14.6649 22.9489 15.4482 23.1428 15.941 23.1428H15.9494V23.1424ZM10.9509 5.44228C11.5312 5.44228 11.7957 5.94411 11.7957 6.50785C11.7957 6.75428 11.7254 7.11532 11.611 7.11532C11.4965 7.11532 11.5141 6.91263 11.4965 6.72752C11.4789 6.49028 11.4348 6.43736 11.3562 6.43736C11.2065 6.43736 11.1097 6.78922 11.1097 7.11532C11.1097 7.31801 11.1444 7.54686 11.3031 7.54686C11.3907 7.54686 11.4701 7.50273 11.523 7.45021C11.4877 7.85499 11.1888 8.20725 10.7663 8.20725C9.99151 8.20725 9.70113 7.30024 9.61312 6.77185C9.14732 7.26509 8.71564 7.62614 7.9411 7.62614C7.21945 7.62614 6.89414 7.09775 6.89414 6.59592C6.89414 6.44595 6.94683 6.05854 7.13104 6.05854C7.35136 6.05854 7.15738 6.78064 7.58906 6.78064C7.69463 6.78064 7.88822 6.69257 7.99399 6.40221C8.05566 6.22608 8.09038 6.04097 8.09038 5.88221C8.09038 5.64437 8.0379 5.495 7.86167 5.495C7.71179 5.495 7.52699 5.60943 7.46552 5.67073C7.67687 5.0369 8.18697 4.711 8.75037 4.711C9.44568 4.711 9.81549 5.32766 9.81549 6.01441C9.81538 6.11477 9.8065 6.21493 9.78895 6.31375C10.0889 5.8205 10.5022 5.44228 10.9509 5.44228ZM8.74199 0.193504C8.74199 0.140585 8.47815 0.0876662 8.11693 0.0876662C7.54515 0.0876662 7.62458 0.563539 7.18452 0.563539C6.7269 0.563539 6.84126 0.0702928 6.2605 0.0702928C5.90805 0.0702928 5.58295 0.131998 5.58295 0.211277C5.58295 0.316916 5.99627 0.272983 5.99627 0.563738C5.99627 0.872067 5.10757 0.960332 5.10757 1.14465C5.10757 1.20636 5.17802 1.23272 5.26603 1.23272C5.45961 1.23272 5.76795 1.14465 5.98728 1.14465C6.11082 1.14465 6.22518 1.17141 6.22518 1.28583C6.22518 1.5061 5.75039 1.90229 5.75039 2.07862C5.75039 2.13174 5.7945 2.14931 5.8384 2.14931C6.01403 2.14931 6.31359 1.6998 6.59518 1.6998C7.06158 1.6998 6.75384 2.69508 7.0085 2.69508C7.27253 2.69508 7.15818 1.71757 7.53677 1.71757C7.84491 1.71757 8.07402 2.39554 8.28496 2.39554C8.33745 2.39554 8.38156 2.35161 8.38156 2.2897C8.38156 2.10518 8.11732 1.72636 8.11732 1.47954C8.11732 1.32977 8.2231 1.25927 8.364 1.25927C8.56656 1.25927 8.83958 1.38269 8.98906 1.38269C9.04195 1.38269 9.09463 1.36511 9.09463 1.30341C9.09463 1.09193 8.31111 0.86328 8.31111 0.590098C8.31071 0.316716 8.74199 0.316716 8.74199 0.193504ZM21.2831 17.5326C21.0979 17.5326 20.0767 18.8979 19.4171 18.8979C19.2589 18.8979 19.1268 18.5984 19.1268 18.3695C19.1268 18.2461 19.2058 18.1576 19.4882 18.0965C21.0013 17.7529 20.6665 16.6172 21.9599 16.6172C22.6732 16.6172 23.4657 17.1021 23.4657 18.1936C23.4657 19.3554 21.8114 20.8004 21.5647 20.8004C21.3624 20.8004 21.1422 20.5094 21.1422 20.3157C21.1422 20.254 21.1688 20.175 21.345 20.1043C22.1892 19.7692 22.6734 18.995 22.6734 18.5986C22.6734 18.5107 22.6297 18.4224 22.5151 18.4224C22.365 18.4224 21.7234 19.8838 21.0105 19.8838C20.517 19.8838 20.0155 19.4347 20.0155 19.224C20.0155 18.8716 21.4414 18.2195 21.4414 17.7261C21.441 17.5412 21.3534 17.5326 21.2831 17.5326ZM22.2331 16.9868C22.1096 16.9868 21.9775 17.0841 21.9775 17.3209C21.9775 17.5853 22.1806 17.7527 22.2948 17.8054C22.3728 17.8495 22.4604 17.8737 22.55 17.8759C22.8053 17.8759 23.0077 17.8054 23.0077 17.5939C23.0077 17.3209 22.6117 16.9868 22.2331 16.9868ZM10.81 1.09173C10.81 1.25029 11.3648 1.59396 11.6196 1.59396C11.7693 1.59396 11.8134 1.39127 11.8134 1.1796C11.8134 0.916 11.6987 0.906814 11.4699 0.906814C11.1802 0.906814 10.81 0.986292 10.81 1.09173ZM11.7256 2.83547C11.7256 2.30687 10.2827 1.32937 10.2827 0.933573C10.2827 0.916 10.2827 0.907014 10.2911 0.88944C10.3968 0.598685 11.5935 0.395995 11.5935 0.158158C11.5935 0.0435334 11.3825 0.0435335 11.277 0.0435335C10.4581 0.0435335 9.26148 0.343076 9.26148 0.634031C9.26148 0.933573 10.3352 1.66446 10.3352 2.0257C10.3352 2.12236 10.2739 2.1579 10.1771 2.1579C9.87796 2.1579 9.22615 1.79665 8.91841 1.79665C8.77751 1.79665 8.72502 1.89331 8.72502 2.03429C8.72502 2.45664 9.22615 3.25842 9.22615 3.49586C9.22615 3.52222 9.21737 3.55756 9.18264 3.55756C9.02418 3.55756 8.27598 2.67711 8.01215 2.67711C7.91536 2.67711 7.90638 2.80931 7.90638 3.00281V3.30235C7.90638 3.50464 7.8976 3.62785 7.8008 3.62785C7.57189 3.62785 7.46612 2.98524 7.24619 2.98524C7.01708 2.98524 6.97377 4.13029 6.75364 4.13029C6.49839 4.13029 6.71812 2.87061 6.47145 2.87061C6.19883 2.87061 5.89049 3.70733 5.6975 3.70733C5.62686 3.70733 5.60929 3.63684 5.60929 3.57494C5.60929 3.32012 5.75917 2.90596 5.75917 2.65934C5.75917 2.53592 5.72385 2.46563 5.61807 2.46563C5.34526 2.46563 4.74714 2.90616 4.51803 2.90616C4.4829 2.90616 4.439 2.88858 4.439 2.85304C4.439 2.64156 5.39834 1.97258 5.39834 1.67304C5.39834 1.38229 4.07797 1.57599 4.07797 1.2413C4.07797 0.959933 5.01956 0.668978 5.01956 0.378222C5.01956 0.123012 3.90175 0.00878669 3.47107 0.00878669C2.95138 0.00878669 2.66979 0.0700928 2.66979 0.219864C2.66979 0.448714 3.84906 0.519406 3.84906 0.721896C3.84906 0.916 2.62568 1.43521 2.62568 1.73475C2.62568 1.99874 4.35079 1.75192 4.35079 2.0255C4.35079 2.32445 2.84561 3.61887 2.84561 4.05081C2.84561 4.14786 2.91626 4.19179 3.01265 4.19179C3.47087 4.19179 4.65873 3.32012 4.98403 3.32012C5.09839 3.32012 5.10737 3.46051 5.10737 3.58372C5.10737 3.81297 5.02834 4.16503 5.02834 4.42064C5.02834 4.62293 5.08082 4.76372 5.25725 4.76372C5.58275 4.76372 5.88191 4.20917 6.10184 4.20917C6.38384 4.20917 6.21619 5.83788 6.63909 5.83788C6.99932 5.83788 7.149 4.07697 7.37811 4.07697C7.60722 4.07697 7.79202 4.58739 8.00317 4.58739C8.2668 4.58739 8.14367 3.69795 8.42546 3.69795C8.73341 3.69795 9.61332 4.75473 10.0095 4.75473C10.1328 4.75473 10.1769 4.65768 10.1769 4.53447C10.1769 4.06818 9.52571 3.0114 9.52571 2.67651C9.52571 2.58824 9.55185 2.56188 9.64885 2.56188C9.99191 2.56188 10.9954 3.03776 11.4703 3.03776C11.6284 3.03816 11.7256 2.95009 11.7256 2.83547ZM23.7389 12.9712C23.8796 12.5306 24.055 12.2219 24.345 11.7468C24.055 11.5973 23.2898 11.2802 23.2898 10.7607C23.2898 10.1533 24.0472 9.67821 24.2043 9.67821C24.2749 9.67821 24.2927 9.73991 24.2927 9.85434C24.2927 10.1711 24.1426 10.6817 24.1426 10.9545C24.1426 11.2007 24.3013 11.4387 24.4416 11.4387C24.5917 11.4387 25.0052 10.9103 25.0052 10.3911C25.0052 9.45774 24.1865 9.17597 23.9325 9.17597C23.6944 9.17597 23.2629 9.56338 22.2501 9.56338C20.3581 9.56338 19.9272 7.68745 19.9272 6.8685C19.9272 6.83335 19.9354 6.82457 19.9444 6.82457C19.9889 6.82457 20.1735 7.05342 20.7718 7.05342C21.0802 7.05342 21.362 6.97434 21.811 6.97434C22.8666 6.97434 23.3336 7.70562 23.985 8.63899C24.3801 8.88522 25.3219 9.28161 25.3219 10.3999C25.3219 11.3858 24.2745 11.932 24.0201 12.9885C24.4242 12.9448 24.6621 12.2221 25.076 12.2221C25.2874 12.2221 25.384 12.3899 25.384 12.6539C25.384 13.0419 25.164 13.6226 24.7411 13.9838C24.7501 13.9485 24.7501 13.9043 24.7501 13.8518C24.7501 13.605 24.6531 13.2527 24.3713 13.2527C23.9325 13.2527 23.7914 13.7282 23.5445 14.1246C23.2896 13.2264 22.9458 12.416 22.3299 11.9232C21.7054 11.4209 20.6311 11.6941 20.6311 10.7785C20.6311 10.5317 20.7894 10.1796 20.7894 9.89827C20.7894 9.80162 20.7718 9.71335 20.7191 9.64286C21.5641 9.95938 21.2648 10.5229 21.7845 11.1038C22.1092 11.4739 23.0072 11.8261 23.5271 13.3494C23.5353 13.3057 23.5443 13.1912 23.5443 13.1122C23.5443 11.8089 21.8198 10.5319 21.6701 10.0039C22.6726 10.1183 22.8488 10.365 23.3244 11.6853C23.4216 11.9585 23.7389 12.6363 23.7389 12.9712ZM4.83435 5.79434C4.88609 5.62899 4.91273 5.45679 4.91338 5.28352C4.91338 4.86057 4.7202 4.21815 4.12128 4.21815C3.77801 4.21815 3.53194 4.49074 3.53194 4.81664C3.53214 5.51277 4.22725 5.79434 4.83435 5.79434ZM4.08615 8.01355C3.79578 8.01355 3.47925 7.6527 3.47925 7.327C3.47925 7.15067 3.61157 6.93021 3.70737 6.93021C3.74289 6.93021 3.76045 6.95657 3.76943 7.01827C3.82212 7.45021 4.10392 7.69663 4.36815 7.81945C4.39449 7.83722 4.41226 7.84621 4.41226 7.86358C4.41226 7.92529 4.24461 8.01355 4.08615 8.01355ZM5.12493 7.18582C5.12493 7.30903 5.05428 7.46778 4.91338 7.46778C4.60584 7.46778 4.35917 7.0007 4.35917 6.7365C4.35917 6.56956 4.45596 6.55178 4.58808 6.55178C4.64955 6.55178 4.67569 6.56057 4.7202 6.58693C4.79903 6.63106 4.79903 6.80699 4.89562 6.93899C4.94871 7.02706 5.12493 7.12411 5.12493 7.18582ZM4.81659 6.26103C4.7643 6.25224 4.69365 6.25224 4.6232 6.25224C4.33283 6.25224 3.94526 6.30516 3.60259 6.53421C2.82765 7.03624 2.95078 7.82823 2.82765 8.03112C2.80967 8.06032 2.80053 8.09409 2.8013 8.12838C2.8013 8.20745 2.88932 8.29532 2.96835 8.29532C3.0392 8.29532 3.0831 8.27815 3.11823 8.27815C3.32957 8.27815 3.56707 8.42792 3.91033 8.42792C4.1127 8.42792 4.35039 8.36601 4.64975 8.21624C5.28339 7.89932 5.53006 7.11552 5.53006 6.98333C5.53006 6.81598 5.39795 6.84234 5.28359 6.68378C5.16025 6.49927 5.22172 6.42897 5.14269 6.32294C5.08941 6.2788 4.97525 6.2788 4.81659 6.26103ZM5.74999 7.67906C5.55641 7.90751 5.35364 8.29512 5.35364 8.69191C5.35364 9.16699 5.64402 9.56338 6.09286 9.56338C6.52433 9.56338 6.7267 9.19335 6.7267 8.81513C6.7267 8.22483 6.18945 7.81086 5.74999 7.67906ZM3.86623 5.98805C3.86623 5.98805 3.61157 6.18175 3.29425 6.18175C2.91586 6.18175 2.6165 5.89978 2.6165 5.50379C2.6165 5.2308 2.757 4.94903 3.0831 4.80805C3.07432 4.86097 3.07432 4.9049 3.07432 4.95782C3.07432 5.45985 3.35612 5.83808 3.86623 5.98805ZM19.5229 11.1126C19.5229 10.9369 19.6808 10.7869 19.857 10.7869C20.0504 10.7869 20.2005 10.9369 20.2005 11.1126C20.2005 11.3151 20.0504 11.4561 19.857 11.4561C19.6808 11.4561 19.5229 11.3151 19.5229 11.1126ZM19.7514 21.2405C19.7955 21.2405 19.848 21.2669 19.848 21.4254C19.848 21.6186 19.76 21.8738 19.4443 22.0767C19.2237 22.2264 18.9246 22.3494 18.4841 22.3584C18.5544 22.1469 18.6073 21.9271 18.6073 21.7154C18.6073 21.6449 18.5983 21.5918 18.5897 21.5137H18.7039C19.3998 21.5137 19.6983 21.2405 19.7514 21.2405ZM19.8215 20.3683C19.8921 20.3066 19.9091 20.2099 19.9091 20.1129V19.9102C19.9091 19.6548 19.5227 19.5048 18.9946 19.5048C18.3522 19.5048 18.0086 19.7955 18.0086 19.9189V20.3241C18.0086 20.4917 18.3959 20.6588 18.8715 20.6588C19.2501 20.6588 19.5936 20.5622 19.8215 20.3683ZM20.2795 20.4653C20.0504 20.6412 19.5139 21.0378 18.6248 21.0378C18.1497 21.0378 17.9387 20.8881 17.8683 20.8881C17.7806 20.8881 17.6834 20.9759 17.5865 21.0906C17.3751 21.3372 17.1023 21.7945 17.1023 22.2963C17.1023 22.6492 17.3751 23.0014 17.8858 23.0014C19.5319 23.0014 20.7637 21.9706 20.7637 21.1347C20.7637 20.6588 20.4819 20.4653 20.2795 20.4653ZM20.587 13.0592C20.587 13.2791 20.6579 13.5343 20.8782 13.5343C21.063 13.5343 21.2217 13.2525 21.2217 12.9446C21.2217 12.5922 21.1596 12.3192 21.1596 12.178C21.1596 12.1169 21.1861 12.0903 21.2217 12.0903C21.3534 12.0991 21.4765 12.4604 21.6176 12.4604C21.7763 12.4604 22.0132 12.1696 22.1096 12.1696C22.1361 12.1696 22.1451 12.2047 22.1451 12.2135C22.1451 12.3457 21.9423 12.6363 21.9423 12.7509C21.9423 12.8478 22.4534 12.8653 22.4534 12.9536C22.4534 13.0858 21.9164 13.0858 21.6617 13.2C21.4155 13.3055 21.2654 13.4375 21.2654 13.6136C21.2654 13.7897 21.4412 13.8251 21.6879 13.8251C22.2772 13.8251 22.6911 13.508 22.823 13.508C22.8496 13.508 22.8672 13.5253 22.8672 13.5519C22.8672 13.6402 22.5678 13.9309 22.5678 14.0631C22.5678 14.2129 23.1138 14.3884 23.1048 14.4767C23.0963 14.5028 23.0611 14.5116 22.9993 14.5116C22.9027 14.5116 22.753 14.4855 22.6382 14.4855C22.5676 14.4855 22.5061 14.4938 22.48 14.5292C22.4179 14.5999 22.4975 15.0666 22.374 15.0666C22.2599 15.0666 21.9601 14.0274 21.2833 14.0274C21.1863 14.0274 21.1157 14.1066 21.1157 14.2388C21.1157 14.5909 21.4596 14.9959 21.7851 15.1898C21.9339 15.287 22.1806 15.3837 22.1806 15.4366C22.1806 15.5416 21.6178 15.4452 21.6178 15.6209C21.6178 15.7797 21.6881 16.0175 21.6881 16.1585C21.6881 16.2024 21.6799 16.2551 21.6264 16.2551C21.5212 16.2551 21.2654 15.7709 21.1422 15.7709C21.0371 15.7709 20.8078 16.0614 20.7112 16.0614C20.6846 16.0614 20.6667 16.0351 20.6667 16.0085C20.6667 15.8058 20.9926 15.3483 20.9926 14.899C20.9926 14.6875 20.9664 14.2298 20.7112 14.2298C20.4994 14.2298 20.2621 14.5639 20.1562 14.899C20.0945 15.0929 20.139 15.8412 19.9979 15.8412C19.8662 15.8412 19.9009 15.3394 19.7251 15.3394C19.5938 15.3394 19.3124 15.5768 19.2152 15.5768C19.1976 15.5768 19.18 15.568 19.18 15.5504C19.18 15.445 19.4349 15.1015 19.4349 15.0312C19.4349 14.899 18.8537 14.8815 18.8537 14.7756C18.8537 14.7137 19.0825 14.67 19.2942 14.6346C19.7428 14.5554 20.4028 14.2298 20.4028 13.7717C20.4028 13.2607 19.9093 13.0411 19.585 12.8296C19.4173 12.7238 19.2325 12.6355 19.2325 12.5652C19.2325 12.4945 19.4443 12.4945 19.5319 12.4945C19.6628 12.4945 19.7953 12.4859 19.7953 12.3801C19.7953 12.3008 19.777 12.1428 19.777 12.0196C19.777 11.9314 19.7859 11.8611 19.8215 11.8611C19.9536 11.8611 20.1388 12.2922 20.2268 12.2922C20.3671 12.2922 20.5613 11.9403 20.6934 11.9403C20.7371 11.9403 20.7547 11.9667 20.7547 12.0458C20.7547 12.3719 20.587 12.7419 20.587 13.0592ZM16.3894 10.4794C16.4864 11.2274 17.4899 10.8486 17.4899 11.7556C17.4899 11.8878 17.4543 12.0817 17.4543 12.2487C17.4543 12.4426 17.4719 12.6099 17.6216 12.6099C17.7713 12.6099 17.8068 12.5043 17.8068 12.3631C17.8068 12.2219 17.7713 12.0464 17.7713 11.9495C17.7713 11.6412 17.9916 11.5707 18.1233 11.5707C18.4578 11.5707 18.713 11.9144 19.2152 11.9144C19.1006 12.4777 17.9389 12.328 17.9389 12.9448C17.9389 13.2527 18.2464 13.3234 18.4492 13.3234C18.634 13.3234 18.6955 13.2967 18.6955 13.1387C18.6955 13.0505 18.6779 12.9538 18.6779 12.8919C18.6779 12.8567 18.7041 12.8218 18.7486 12.8218C18.9424 12.8218 19.8921 13.5435 19.8921 13.764C19.8921 13.9665 18.8893 14.1689 18.5985 14.1689C18.5111 14.1689 18.4933 14.1074 18.4933 14.0723C18.4933 14.0104 18.643 13.8255 18.643 13.7196C18.643 13.6405 18.5113 13.5876 18.1588 13.5876C17.9916 13.5876 17.8685 13.6052 17.8685 13.7374C17.8685 13.975 18.2552 14.2658 18.2552 14.4859C18.2552 14.6618 18.15 14.7674 17.8685 14.7674C17.6308 14.7674 17.2697 14.5825 17.2697 14.2748C17.2697 14.028 17.5254 13.7813 17.5254 13.6318C17.5254 13.5876 17.4899 13.5171 17.3843 13.5171C17.0584 13.5171 16.9708 14.38 15.8172 14.4771C16.0024 14.3099 16.1611 14.1248 16.1611 13.7462C16.1611 13.5611 16.117 13.4111 16.117 13.209C16.117 12.9448 16.2397 12.8126 16.416 12.8126C16.7419 12.8126 16.9001 13.2703 17.1113 13.2703C17.2258 13.2703 17.3486 13.1651 17.3486 13.0067C17.3486 12.3369 16.0637 12.4338 16.0637 11.4918C16.0639 11.236 16.1515 10.9193 16.3894 10.4794ZM18.0616 16.2028C18.0616 16.3262 18.1497 16.4233 18.2726 16.4233C18.4137 16.4233 18.5021 16.2999 18.5021 16.1591C18.5021 15.974 18.3345 15.7186 18.1758 15.7186C18.1055 15.7186 18.1321 15.824 18.1141 15.9384C18.1057 16.0267 18.0616 16.1325 18.0616 16.2028ZM17.604 15.0318C18.5282 15.2078 19.0302 15.9035 19.0302 16.5553C19.0302 17.0046 18.7484 17.4176 18.2548 17.4176C17.8066 17.4176 17.4807 17.1094 17.4807 16.6168C17.4807 16.247 17.7711 15.8594 17.7711 15.4803C17.7713 15.3312 17.7276 15.1814 17.604 15.0318ZM16.4335 16.5291C16.5215 16.6168 16.5481 16.7051 16.5481 16.7931C16.5481 16.9249 16.4864 17.0661 16.4864 17.2151C16.4864 17.4266 16.6447 17.6111 16.8738 17.6111C17.1201 17.6111 17.2869 17.4174 17.2869 17.1885C17.2871 16.8548 16.9436 16.5291 16.4335 16.5291ZM19.3467 15.9652C19.4084 16.0618 19.4347 16.1591 19.4347 16.2472C19.4347 16.4936 19.2675 16.7228 19.2675 16.978C19.2675 17.268 19.488 17.506 19.8213 17.506C20.1827 17.506 20.429 17.2153 20.429 16.8726C20.4292 16.4059 20.0067 16.0091 19.3467 15.9652ZM16.6447 15.4983C17.0492 15.5512 17.1464 15.692 17.1464 15.8064C17.1464 16.0005 16.9706 16.062 16.8033 16.062C16.6802 16.062 16.5395 16.0357 16.3894 16.0357C16.1956 16.0357 16.0024 16.0798 15.8438 16.2647C15.9579 16.2823 16.1256 16.3614 16.1256 16.5377C16.1256 17.0487 14.7082 16.6256 14.7082 17.9378C14.7082 18.6337 15.4305 19.3904 16.5215 19.3904C17.0847 19.3904 17.4454 19.2062 17.4454 18.9948C17.4454 18.8274 17.1464 18.9418 17.1464 18.8011C17.1464 18.739 17.252 18.6247 17.252 18.5279C17.252 18.4839 17.2168 18.4047 17.1464 18.4047C16.9877 18.4047 16.6892 18.6599 16.0815 18.6599C15.6063 18.6599 15.1397 18.3869 15.1397 18.0169C15.1397 17.9378 15.1752 17.8934 15.2277 17.8934C15.2802 17.8934 15.3508 17.929 15.4125 17.929C15.4656 17.929 15.4742 17.8934 15.4742 17.7966C15.4742 17.6999 15.4742 17.4266 15.6418 17.4266C15.8083 17.4266 16.1256 18.0432 17.3402 18.0432C17.7451 18.0432 18.5282 17.9641 18.8186 17.6997C18.81 18.6691 18.0527 19.9451 16.469 19.9451C14.823 19.9451 13.9433 18.6247 13.9433 17.4088C13.9433 16.0618 15.0429 14.8377 16.5483 14.8377C16.9352 14.8377 17.2612 14.9701 17.2612 15.1371C17.261 15.3665 16.6892 15.2255 16.6447 15.4983ZM10.2737 6.48129C10.2737 6.33152 10.2384 6.29637 10.2031 6.29637C10.1152 6.29637 10.0179 6.40201 9.87756 6.63945C9.89512 6.95637 9.94801 7.09755 10.0356 7.09755C10.1326 7.09775 10.2737 6.78922 10.2737 6.48129ZM9.06749 6.84214C9.16448 6.84214 9.28742 6.7365 9.51653 6.48129C9.53409 6.36687 9.53409 6.26083 9.53409 6.12883C9.53409 5.9527 9.46344 5.7586 9.35767 5.7586C9.09423 5.7586 8.96212 6.46352 8.96212 6.64824C8.96212 6.75427 9.0152 6.84214 9.06749 6.84214ZM10.5022 7.62594C10.7223 7.62594 10.9686 6.78044 10.9686 6.25224C10.9686 6.13782 10.9511 6.01461 10.8984 6.01461C10.7136 6.01461 10.4048 6.88607 10.4048 7.36215C10.405 7.54686 10.4491 7.62594 10.5022 7.62594ZM8.34583 7.14168C8.64519 7.14168 8.98866 5.52156 8.98866 5.24838C8.98866 5.17789 8.96212 5.12497 8.90085 5.12497C8.62783 5.12497 8.24904 6.66601 8.24904 7.00929C8.24884 7.07099 8.2666 7.14168 8.34583 7.14168ZM9.30518 7.81086C8.92679 7.81086 8.90943 8.26916 8.90943 9.19355C8.62763 8.58608 8.16103 7.93427 7.6156 7.93427C7.24579 7.93427 7.10489 8.18089 7.10489 8.61244C7.10489 8.7009 7.11367 8.8329 7.13104 8.91198C7.17534 8.7628 7.31604 8.7011 7.49246 8.7011C7.87085 8.7011 8.32827 8.99126 8.62763 9.38765C8.28437 9.32594 7.94988 9.26424 7.66829 9.26424C7.49246 9.26424 7.3338 9.28181 7.20188 9.34352C6.94683 9.45794 6.60317 9.83676 6.60317 10.4091C6.60317 10.4972 6.61215 10.5934 6.63011 10.6992C6.93805 10.0123 7.7565 9.70457 8.28457 9.70457C8.38974 9.70457 8.46917 9.71335 8.53084 9.72234C8.25782 9.96816 8.19635 10.4001 8.17879 10.6905C8.17001 10.8314 8.11693 10.8404 8.02073 10.8404C8.02073 11.1304 8.24904 11.5621 8.24904 11.7824C8.24904 11.8617 8.20514 11.9322 8.16123 11.9497C8.16123 12.3369 8.5482 12.6187 8.5482 12.8653C8.5482 12.927 8.53084 12.9798 8.5043 13.0065C8.53084 13.1649 8.95334 13.4377 9.00622 13.5521C9.09423 13.7372 9.1559 13.7546 9.19961 13.7546C9.34909 13.7546 9.58678 13.5786 9.58678 13.4197C9.58678 13.3672 9.54287 13.3055 9.50775 13.2789C9.34031 13.1559 9.25249 12.8915 9.18224 12.7154C9.14481 12.7158 9.10826 12.7039 9.07813 12.6817C9.04799 12.6595 9.0259 12.628 9.0152 12.5922C8.97968 12.4775 8.96192 12.0638 8.89187 11.8615C8.77711 11.8349 8.72462 11.791 8.72462 11.5529C8.72462 11.4385 8.79487 10.9894 8.79487 10.831C8.74179 10.831 8.67154 10.7957 8.67154 10.6901C8.67154 10.4087 8.95333 10.1882 9.03257 9.82758C9.53409 10.1972 9.65723 10.5756 9.65723 10.9103C9.65723 11.0861 9.63068 11.2534 9.59556 11.4122C9.96557 11.2272 10.5196 10.9545 10.5196 10.3999C10.5196 10.0742 10.3699 9.71335 9.37523 9.57217C9.68337 9.45774 10.0709 9.39604 10.3964 9.39604C10.9596 9.39604 11.2853 9.57217 11.356 9.96816C11.4699 9.79263 11.558 9.58994 11.558 9.40502C11.558 8.97328 11.1977 8.69211 10.7395 8.69211C10.2029 8.69211 9.72728 8.97348 9.21657 9.31696C9.44568 8.84168 9.60414 8.55992 9.88594 8.55992C9.92984 8.55992 9.97375 8.5683 10.0177 8.57729C9.91248 8.18968 9.51653 7.81086 9.30518 7.81086ZM3.6902 2.32445C3.6902 2.50038 3.02123 3.09088 2.78374 3.09088C2.69573 3.09088 2.66939 2.98504 2.66939 2.88838C2.66939 2.71205 2.74842 2.46543 2.84521 2.38595C2.95957 2.28031 3.2238 2.22799 3.42617 2.22799C3.5497 2.22819 3.6902 2.25395 3.6902 2.32445ZM24.1342 14.1598C24.5743 14.1598 24.9263 14.7323 24.9263 15.4019C24.9263 16.1146 24.5919 16.8902 23.9943 17.4178C23.9854 16.2294 22.5327 16.6082 22.5327 15.7449C22.5327 15.3753 22.7965 15.1285 23.1138 15.1285C23.3952 15.1285 23.6159 15.208 23.7742 15.3665C23.6159 15.2169 23.5361 15.0055 23.5361 14.8028C23.5357 14.4681 23.7475 14.1598 24.1342 14.1598ZM17.604 5.15153C17.5338 5.0369 17.2695 4.97539 17.1464 4.97539C16.7594 4.97539 16.4954 5.24858 16.4425 5.495C16.4034 5.39995 16.3823 5.29843 16.3804 5.19566C16.3804 4.80785 16.6447 4.33258 17.2871 4.33258C17.8507 4.33258 18.0706 4.63192 18.1496 4.63192C18.2373 4.63192 18.3259 4.54385 18.3959 4.54385C18.4929 4.54385 18.4929 4.69363 18.4929 4.79926C18.4929 5.15172 18.3343 5.759 17.9387 5.97946C17.8681 5.82949 17.7274 5.66254 17.4986 5.55651C17.4722 5.54629 17.4496 5.52817 17.4339 5.50462C17.4181 5.48107 17.41 5.45324 17.4106 5.42491C17.4106 5.32786 17.4986 5.20424 17.604 5.15153ZM16.2753 5.79434C16.5044 6.01441 16.7063 6.11126 16.9528 6.11126C17.0494 6.11126 17.1642 6.0847 17.226 6.0847C17.3051 6.0847 17.3577 6.12005 17.3577 6.18155C17.3577 6.2786 17.2697 6.43716 17.164 6.52523C17.2695 6.56936 17.3843 6.58673 17.5074 6.58673C18.0088 6.58673 18.5809 6.26962 18.5809 5.47743C18.6865 5.61781 18.7486 5.90857 18.7486 6.04057C18.7486 7.0003 18.0439 7.37033 17.3933 7.37033C16.9708 7.37033 16.7594 7.22955 16.7065 7.22955C16.5397 7.22955 16.5483 7.56404 16.4337 7.55525C16.2314 7.5203 16.0468 7.07079 16.0468 6.59552C16.0464 6.31375 16.117 6.01441 16.2753 5.79434ZM10.1592 3.23186C10.1592 3.53979 11.2592 5.04589 11.4701 5.04589C11.646 5.04589 11.7781 4.73756 11.7781 4.47316C11.7781 4.40307 11.7605 4.33258 11.7254 4.27986C11.5667 4.05959 10.4489 3.17894 10.2031 3.17894C10.1767 3.17914 10.1592 3.2055 10.1592 3.23186ZM22.858 2.50936C22.858 1.88452 21.3624 1.72596 21.3624 1.58478C21.3624 1.47035 22.1982 1.27645 22.6297 1.26746C21.9689 0.422554 21.0281 0.51062 21.0281 0.360849C21.0281 0.272584 21.7324 0.0960533 22.383 0.0960533C22.9286 0.0960533 23.4397 0.219664 23.4397 0.633631C23.4397 0.862681 23.2545 1.10072 23.2545 1.45258C23.2545 1.64628 23.3511 1.81383 23.607 1.81383C23.8798 1.81383 23.9415 1.52307 23.9415 1.21474C23.9415 0.959933 23.8973 0.765829 23.8973 0.642618C23.8973 0.272583 24.1518 0.0261601 24.5128 0.0261601C24.8122 0.0261601 24.8824 0.157959 25.3225 0.157959C25.0852 0.298943 24.997 0.554552 24.997 0.677764C24.997 1.0478 25.2351 1.30301 25.2351 2.06065C25.2351 3.45172 23.9329 3.94497 22.3389 3.94497C21.8988 3.94497 21.433 3.90962 20.9754 3.83913C20.9046 3.83035 20.887 3.81297 20.887 3.76884C20.887 3.65421 21.5123 3.59271 21.5123 3.02897C21.5123 2.80891 21.4414 2.59723 21.4414 2.51815C21.4413 2.50882 21.4431 2.49956 21.4466 2.49092C21.4501 2.48229 21.4553 2.47444 21.4619 2.46785C21.4685 2.46126 21.4764 2.45607 21.485 2.45256C21.4937 2.44906 21.5029 2.44732 21.5123 2.44746C21.6444 2.44746 21.9074 2.95868 22.4002 2.95868C22.5325 2.95888 22.858 2.91474 22.858 2.50936ZM24.345 1.62012C24.345 2.40393 23.774 3.00281 22.7438 3.17035C22.858 3.17914 22.9641 3.17914 23.0697 3.17914C24.2749 3.17914 24.715 2.63298 24.715 2.17527C24.715 1.91967 24.5743 1.69082 24.345 1.62012ZM23.5098 8.7007C23.5098 8.51558 23.0432 8.49801 22.9991 7.9782C22.9901 7.89913 22.9639 7.75814 22.867 7.75814C22.7087 7.75814 22.8314 8.2424 22.6556 8.2424C22.2503 8.2424 22.1186 7.45021 21.9689 7.45021C21.9337 7.45021 21.8898 7.47657 21.8898 7.58221C21.8898 7.67906 21.9074 7.74077 21.9074 7.85499C21.9074 7.96922 21.8809 8.0487 21.7765 8.0487C21.5388 8.0487 21.3274 7.49394 21.1247 7.49394C21.0806 7.49394 21.0371 7.5207 21.0371 7.56444C21.0371 7.67048 21.2129 7.86358 21.2129 7.96043C21.2129 8.17211 20.6403 8.05708 20.6403 8.23361C20.6403 8.31309 20.7197 8.33945 20.8255 8.33945C21.0107 8.33945 21.3011 8.25997 21.4504 8.25997C21.5388 8.25997 21.6709 8.27795 21.6709 8.39217C21.6709 8.51558 21.3536 8.67434 21.3536 8.78857C21.3536 8.84168 21.4067 8.86765 21.4502 8.86765C21.6879 8.86765 22.1098 8.45408 22.4091 8.45408C22.4622 8.45408 22.5947 8.48064 22.5947 8.55992C22.5947 8.67434 22.295 8.87643 22.295 9.04378C22.295 9.08791 22.3215 9.14083 22.374 9.14083C22.5327 9.14083 22.744 8.72686 23.0434 8.72686C23.1575 8.72686 23.3252 8.77119 23.413 8.77119C23.4836 8.77119 23.5098 8.72686 23.5098 8.7007ZM17.2079 1.98137C17.2079 1.88452 16.8648 1.6994 16.8648 1.59396C16.8648 1.57619 16.8828 1.5674 16.9085 1.5674C17.0051 1.5674 17.1723 1.60255 17.3049 1.60255C17.419 1.60255 17.4366 1.1099 17.5252 1.1099C17.5865 1.1099 17.6924 1.57619 17.789 1.57619C17.9032 1.57619 18.1141 1.44399 18.2025 1.44399C18.2201 1.44399 18.2373 1.45278 18.2373 1.47055C18.2373 1.53246 18.0173 1.76989 18.0173 1.84059C18.0173 1.91987 18.5109 2.01672 18.5109 2.08741C18.5109 2.17528 18.0084 2.16669 18.0084 2.24537C18.0084 2.30707 18.1936 2.5535 18.1936 2.63317C18.1936 2.65075 18.1846 2.65953 18.167 2.65953C18.0968 2.65953 17.8243 2.53612 17.7449 2.53612C17.6483 2.53612 17.4897 2.89737 17.4104 2.89737C17.3839 2.89737 17.3663 2.86183 17.3663 2.81789L17.3484 2.46563C17.3484 2.43028 17.3312 2.39514 17.2867 2.39514C17.1811 2.39514 16.9788 2.38615 16.9171 2.38615C16.8734 2.38615 16.8558 2.37737 16.8558 2.35959C16.8564 2.2893 17.2079 2.04288 17.2079 1.98137ZM18.9246 3.65441C18.3079 3.65441 17.9034 3.34609 17.9034 3.18793C17.9034 3.10865 17.9565 3.05573 18.0261 3.05573C18.2203 3.05573 18.6428 3.35467 18.7835 3.35467C18.8186 3.35467 18.8452 3.3373 18.8452 3.28458C18.8452 3.12622 18.6955 2.86183 18.6955 2.72983C18.6955 2.69468 18.722 2.66812 18.7749 2.66812C19.0122 2.66812 19.3646 2.76517 19.5495 2.76517C19.6115 2.76517 19.6285 2.72963 19.6285 2.69448C19.6285 2.50038 19.0567 2.12216 19.0567 2.00773C19.0567 1.90209 19.7688 1.74353 19.7688 1.57599C19.7688 1.39986 18.8009 1.52307 18.8009 1.35553C18.8009 1.23232 18.9857 1.02124 18.9857 0.924587C18.9857 0.880255 18.9505 0.862881 18.8891 0.862881C18.81 0.862881 18.3869 1.03023 18.2113 1.03023C18.1233 1.03023 18.0175 1.01265 18.0175 0.889241C18.0175 0.68675 18.361 0.466287 18.898 0.466287C19.7688 0.466287 20.2885 1.06537 20.2885 2.06944C20.2885 3.3373 19.3998 3.65441 18.9246 3.65441ZM12.9665 18.8895C12.9665 18.9684 12.9398 19.0567 12.8694 19.1445C12.773 18.9682 12.4995 18.8801 12.3772 18.8801C11.4701 18.8801 11.8136 20.1921 10.8453 20.1921C10.4404 20.1921 10.4048 20.1392 10.2559 20.1392C10.1941 20.1392 10.159 20.1658 10.159 20.2183C10.159 20.4471 10.4845 21.0115 11.3907 21.0115C12.298 21.0115 13.1685 20.4563 13.1685 19.7688C13.1667 19.6443 13.1397 19.5215 13.0891 19.4077C13.1246 19.3548 13.2124 19.3197 13.2914 19.3197C13.4325 19.3197 13.5118 19.4784 13.6437 19.4784C13.7846 19.4784 13.89 19.3728 13.89 19.2328C13.89 19.1182 13.8283 19.0389 13.7225 18.9856C13.7932 18.9331 13.8459 18.845 13.8459 18.7483C13.8459 18.5984 13.7401 18.4576 13.5647 18.4576C13.4852 18.4576 13.4325 18.4841 13.3711 18.5455C13.3533 18.3869 13.2655 18.2371 13.0981 18.2371C12.9665 18.2371 12.8694 18.3342 12.8694 18.4839C12.8694 18.6247 12.9665 18.7392 12.9665 18.8895ZM10.5988 19.2238C10.335 19.2238 9.93922 18.9418 9.93922 18.7833C9.93922 18.6511 10.0626 18.5806 10.1592 18.5806C10.3793 18.5806 10.775 18.8538 10.775 19.0828C10.775 19.1445 10.7309 19.2238 10.5988 19.2238ZM8.14347 17.2504C8.84796 17.4268 9.19961 17.8054 9.27006 18.2547C9.34051 18.6864 9.42832 19.0391 9.59576 19.215C9.81589 19.4607 10.2474 19.6809 10.6254 19.6809C10.9423 19.6809 11.1979 19.5757 11.1979 19.2857C11.1979 18.9684 10.7665 18.2549 10.1326 18.2549C10.0711 18.2549 9.99171 18.2639 9.9039 18.2639C9.82467 18.2639 9.70992 18.2461 9.63947 18.1846C9.49837 18.0616 9.45466 17.4006 9.19043 17.005C8.90045 16.5645 8.58353 16.4413 8.15225 16.4413C7.84411 16.4413 7.50104 16.6086 7.50104 16.8552C7.50124 17.0046 7.58047 17.1096 8.14347 17.2504ZM12.5614 16.1767C12.5614 15.7805 11.7432 15.7715 11.7432 15.1728C11.7432 15.023 11.8396 14.7674 12.0339 14.4942C12.1128 14.9523 12.2982 15.1902 12.6935 15.34C13.4767 15.6303 13.5824 16.0704 13.5824 16.5377C13.5824 17.3297 13.028 18.3166 11.6025 18.3166C10.4581 18.3166 9.63967 17.2946 9.63967 16.4319C9.63967 16.194 9.70133 15.9297 9.85121 15.9297C9.98293 15.9297 10.027 16.0353 10.1328 16.1411C10.5286 16.5375 10.96 16.6432 11.5847 16.6432C12.1481 16.6434 12.5614 16.4145 12.5614 16.1767ZM12.5965 16.8109C12.289 16.9339 12.1746 16.9249 12.1746 17.2327C12.1746 17.3473 12.1483 17.4971 12.1483 17.5763C12.1483 17.6822 12.1659 17.7439 12.2892 17.7439C12.6055 17.7439 13.107 17.2067 13.107 16.749C13.107 16.6258 13.037 16.5731 12.958 16.5731C12.8871 16.5731 12.8079 16.7139 12.5965 16.8109ZM9.78934 12.3631C9.78934 11.7998 11.1273 11.5002 11.1273 10.8047C11.1273 10.6903 11.0832 10.4882 11.0039 10.3382C11.4701 10.5932 11.8136 11.0251 11.8136 11.377C11.8136 11.9849 11.1802 12.2662 11.1802 12.6451C11.1802 13.0858 11.8577 13.1561 11.8577 13.7021C11.8577 14.1512 11.2153 14.6706 11.2153 15.2521C11.2153 15.7008 11.5314 16.0706 12.016 16.1325C11.8577 16.1679 11.7166 16.1942 11.5669 16.1942C10.6782 16.1942 9.7628 15.4632 9.7628 14.5915C9.7628 14.16 9.94801 13.7813 10.2296 13.5084C10.4757 13.7196 10.7223 13.8608 10.8804 13.8608C11.0215 13.8608 11.0832 13.7901 11.0832 13.6847C11.0832 13.3582 9.78934 13.0592 9.78934 12.3631ZM11.6043 31.2029C11.8531 31.2029 12.2804 31.122 12.6169 30.5825C12.4247 30.1557 12.2874 29.291 12.2678 28.9767C12.1689 27.3686 12.7883 25.8557 13.4663 25.8141C13.9634 25.7844 14.361 26.2551 14.4067 27.0161C14.5294 29.0212 13.8612 29.8582 13.5281 30.5789C13.5844 30.8596 14.0582 31.3359 14.5066 31.3359C14.6723 31.3359 14.8719 31.2532 14.9218 31.1859C14.8756 31.0299 14.853 30.8679 14.8547 30.7053C14.8547 29.5442 15.6019 28.5637 16.2481 28.5637C16.763 28.5637 17.06 29.2441 17.06 29.6938C17.06 30.2238 16.6125 30.6559 15.9496 31.0709C16.0665 31.1859 16.2808 31.2698 16.4645 31.2698C17.4096 31.2698 17.9064 30.1253 18.272 29.0784C18.3382 28.8793 18.4552 28.5973 18.6863 28.5973C19.0846 28.5973 19.2511 31.2193 19.9133 31.2193C20.1959 31.2193 20.4274 30.6384 20.4274 30.1917C20.4274 29.8594 20.3116 29.8262 20.3116 29.3441C20.3116 28.8138 20.5934 28.3654 20.9758 28.3654C21.2073 28.3654 21.2907 28.5975 21.2907 28.8795C21.2907 29.942 20.528 31.9172 19.4006 31.9172C18.5536 31.9172 18.6194 30.4554 18.3221 30.4554C17.9896 30.4554 17.525 31.9342 15.8835 31.9342C15.6173 31.9342 15.3359 31.8014 15.1044 31.5344C14.706 31.8014 14.3735 31.9172 13.9919 31.9172C13.3789 31.9172 13.1132 31.286 12.8652 31.286C12.566 31.286 12.2355 31.9342 11.2394 31.9342C10.4427 31.9342 10.3102 30.8722 10.029 30.8722C9.77997 30.8722 9.39858 31.9342 8.98427 31.9342C8.28616 31.9342 8.13828 30.092 7.52419 30.092C7.04282 30.092 5.52348 31.9625 5.11056 31.9198C4.94472 31.9022 4.87526 31.7784 4.89263 31.6121C4.91598 31.3826 5.11316 30.7682 5.19398 30.4766C5.3281 29.973 5.45123 29.4186 5.51989 29.2423C5.58794 29.0646 5.77294 28.9378 5.92003 28.9513C5.99447 28.9585 6.01682 29.0975 6.03997 29.2117C6.12319 29.6235 6.24094 30.0415 6.37306 30.0415C6.60576 30.0415 7.37551 28.5637 7.82275 28.5637C8.37058 28.5637 8.43664 30.888 9.18284 30.888C9.43191 30.888 9.61532 30.589 9.78036 30.224C9.79733 29.6091 9.96277 28.7307 10.4603 28.7307C10.8094 28.7307 10.975 29.5097 10.7255 30.1914C10.7253 31.0034 11.2558 31.2029 11.6043 31.2029ZM23.9774 29.6433C23.9774 29.2285 23.5966 28.647 23.0326 28.647C22.2862 28.647 21.5572 29.4604 21.5572 30.5888C21.5572 31.6003 22.1858 31.9338 22.8163 31.9338C23.9111 31.9338 24.5753 31.0358 24.9232 30.2899C25.0896 30.7877 25.1874 31.9338 25.6033 31.9338C25.7689 31.9338 25.8851 31.8505 26.0851 31.4022C26.5812 30.2899 27.0622 29.0121 27.7265 29.0121C27.9744 29.0121 27.8259 29.4604 28.4227 29.4604C28.7049 29.4604 28.9032 29.2285 28.9032 28.9615C28.9032 28.5799 28.5552 28.2816 28.0243 28.2816C26.4662 28.2816 26.1346 30.6222 25.8851 30.6222C25.4704 30.6222 25.6033 28.7469 25.3043 28.7469C25.0389 28.7469 24.906 29.0626 24.8729 29.2111C24.6569 30.0742 24.0442 31.3195 23.1144 31.3195C22.8993 31.3195 22.5177 31.2363 22.5177 31.0204C22.5177 30.7877 23.9774 30.7556 23.9774 29.6433ZM13.8694 27.4644C13.8409 27.0011 13.7283 26.7918 13.48 26.8084C13.1494 26.8288 12.9971 27.8682 13.0641 28.9607C13.107 29.6742 13.213 29.7835 13.3122 29.7769C13.495 29.7661 13.9329 28.492 13.8694 27.4644ZM11.1726 26.4905C11.1568 26.2241 10.9413 26.042 10.6593 26.042C10.344 26.042 10.0446 26.3737 10.0791 26.7885C10.0791 27.0371 10.2609 27.2865 10.5771 27.2865C10.9415 27.2865 11.2067 26.8725 11.1726 26.4905ZM16.3317 29.8753C16.3317 29.5942 16.1821 29.3607 16.0001 29.3607C15.85 29.3607 15.5027 29.5267 15.5027 30.0577C15.5027 30.4726 15.6512 30.6711 15.7187 30.7556C16.1984 30.6054 16.3317 30.2068 16.3317 29.8753ZM22.8163 29.3118C23.1647 29.3118 23.2649 29.7256 23.1819 29.975C23.0985 30.2236 22.8007 30.5056 22.3357 30.5886C22.2363 30.3392 22.186 29.3118 22.8163 29.3118ZM0.0034935 29.5772C-0.013071 28.8954 0.0202577 28.2157 0.302653 27.2533C0.451535 26.7397 0.584849 26.556 1.04846 26.4574C1.41328 26.3907 1.38075 26.7717 1.29792 27.2202C1.11571 28.2155 1.03149 28.6967 1.09875 29.8258C1.16381 31.0202 1.71224 31.4853 2.30876 31.4853C3.20444 31.5022 3.60279 30.7558 3.76843 29.6764C3.90055 28.8134 3.80096 28.3976 3.71794 28.133C3.66865 27.9836 3.53593 27.6513 3.48604 27.4031C3.42018 26.7719 3.71794 26.4745 3.96741 26.3909C4.26617 26.3074 4.38272 26.4576 4.49787 26.8064C4.64775 27.337 4.66432 28.0329 4.61422 29.0282C4.54816 30.3887 3.86782 32.0334 2.17624 31.9995C0.716567 31.9671 0.0707495 31.0204 0.0034935 29.5772Z" fill="#2C3242"/>
</svg>
