<svg width="38" height="20" viewBox="0 0 38 20" fill="none" xmlns="http://www.w3.org/2000/svg">
<path d="M6.45528 0.0681512V0.470008L6.8301 0.555784C7.40621 0.699136 7.49299 1.04342 7.72319 2.13325L8.32292 5.19711L6.65125 14.1466L4.37455 2.90171C4.11483 1.66794 4.02865 0.750249 4.95125 0.549321L5.38333 0.463545V0.0681512H0V0.470008L0.547778 0.613947C1.09556 0.757299 1.32576 1.01522 1.70059 2.70783L5.36031 19.9471H6.30476L8.75441 6.92439L11.4697 19.9471H12.2193L15.7356 3.2407C16.1394 1.31955 16.3123 0.773162 17.0047 0.59691L17.5519 0.45297V0.0681512H13.597V0.470008L14.2021 0.584572C15.0668 0.756712 15.2681 1.30133 14.8644 3.51037L12.7087 14.1466L10.5247 2.90171C10.2885 1.78309 10.1498 0.75025 11.1014 0.57811L11.7353 0.463545V0.0616882L6.45528 0.0681512ZM32.0993 0.122202V0.524059L32.8194 0.696199C33.4528 0.839551 33.7125 1.06927 33.7125 1.87239V15.7846C33.7125 17.3333 33.7125 19.3702 32.0981 19.3702C31.1761 19.3702 30.4572 18.5671 30.5138 18.0219C30.5711 17.133 32.1276 17.1899 32.2138 15.7558C32.3006 14.7571 31.666 14.2871 31.0321 14.2066C30.139 14.092 29.044 14.8376 29.0145 16.3292C28.9862 18.2504 30.2541 20 32.4145 20C34.8051 20 36.3694 18.3949 36.3694 15.3252L36.37 1.90059C36.37 1.09747 36.5718 0.838964 37.1479 0.696199L37.7778 0.517596V0.115739L32.0993 0.122202ZM22.3892 0C19.9396 0 18.5566 2.0369 18.5566 4.70419C18.5566 9.66688 24.9835 11.5886 24.9835 16.0637C24.9835 18.1864 24.0898 19.362 22.7995 19.362C20.8693 19.362 19.4851 17.0395 19.1398 13.3388H18.7077V19.879H19.0536C19.3416 18.939 19.7165 18.8467 20.0334 18.8467C20.5812 18.8467 21.1567 19.9924 22.8284 19.9924C25.3932 19.9924 27.0642 17.7845 27.0654 14.7424C27.0654 8.77622 20.6385 7.31332 20.6385 3.03919C20.6385 2.06392 20.9265 0.630397 22.368 0.630397C24.4434 0.630397 25.3371 3.35527 25.6824 6.65413H26.1145V0.115152H25.7686C25.6245 0.746137 25.3654 1.03284 24.9906 1.03284C24.3277 1.03284 23.9871 0.000587187 22.3969 0.000587187L22.3892 0ZM27.0288 5.6254V5.69591L27.0424 5.68768L27.0353 5.62893L27.0288 5.6254Z" fill="#2C3242"/>
</svg>
