<svg width="36" height="36" viewBox="0 0 36 36" fill="none" xmlns="http://www.w3.org/2000/svg">
<path d="M16.7395 13.5295L12.2685 16.969C11.81 15.249 10.319 13.9875 8.4845 13.9875H5.27455V21.8985H8.4845C10.3189 21.8985 11.9237 20.6367 12.2677 18.917L16.7394 22.3565L21.2111 18.917V21.8985H26.2551V20.293H22.9309V13.9875H21.0959V16.968L16.8538 20.4084L15.9362 19.6054L18.0007 17.9999L20.1785 16.2801L18.9177 15.2489L14.6756 18.5731L13.7585 17.7703L18.0007 14.5604L16.739 13.5292L16.7395 13.5295ZM6.9945 15.592H8.3705C8.65712 15.592 8.93675 15.6573 9.1947 15.7755C9.45266 15.8938 9.6884 16.0655 9.88905 16.2804C10.0897 16.4954 10.2549 16.7529 10.3695 17.0431C10.4842 17.3334 10.5482 17.6562 10.5482 18.0002C10.5482 18.3155 10.4908 18.6235 10.3851 18.9084C10.2795 19.1932 10.1255 19.4548 9.93202 19.6769C9.73855 19.8991 9.50591 20.082 9.24257 20.2092C8.97923 20.3364 8.68577 20.4074 8.37052 20.4074H6.99452V15.592L6.9945 15.592ZM31.988 20.2935V21.8986H26.9435V13.9876H28.7779V20.2931H31.9881L31.988 20.2935ZM18 0C8.14 0 0 8.14 0 18C0 27.86 8.0255 36 18 36C27.9745 36 36 27.9745 36 18C36 8.0255 27.86 0 18 0ZM18 1.83495C19.1178 1.83494 20.2084 1.94713 21.2617 2.1621C22.3151 2.37706 23.3314 2.6941 24.2988 3.10255C25.2661 3.51099 26.1851 4.0114 27.0449 4.5918C27.9048 5.1722 28.7056 5.8326 29.4365 6.5635C30.1674 7.2944 30.8277 8.09525 31.4082 8.9551C31.9886 9.81495 32.489 10.7339 32.8974 11.7012C33.3059 12.6686 33.6229 13.685 33.8379 14.7383C34.0529 15.7917 34.1651 16.8822 34.1651 18C34.1651 19.1178 34.0529 20.2084 33.8379 21.2617C33.6229 22.3151 33.3059 23.3314 32.8974 24.2988C32.489 25.2661 31.9886 26.1851 31.4082 27.0449C30.8278 27.9048 30.1674 28.7056 29.4365 29.4365C28.7056 30.1674 27.9048 30.8278 27.0449 31.4082C26.1851 31.9886 25.2661 32.489 24.2988 32.8974C23.3314 33.3059 22.315 33.6229 21.2617 33.8379C20.2083 34.0529 19.1178 34.1651 18 34.1651C16.8822 34.1651 15.7916 34.0529 14.7383 33.8379C13.6848 33.6244 12.6683 33.3074 11.7008 32.8989C10.7338 32.4904 9.8148 31.9899 8.9548 31.4094C8.0948 30.8294 7.2943 30.1689 6.5633 29.4379C5.8323 28.7069 5.1718 27.9064 4.5916 27.0464C4.0112 26.1864 3.5108 25.2674 3.10235 24.3004C2.6939 23.3329 2.3769 22.3164 2.1619 21.2629C1.94695 20.2099 1.83475 19.1194 1.83475 18.0014C1.83475 16.8834 1.94695 15.7929 2.1619 14.7399C2.37685 13.6864 2.6939 12.6699 3.10235 11.7024C3.5108 10.7354 4.0112 9.8164 4.5916 8.9564C5.1718 8.0964 5.8323 7.2959 6.5633 6.5649C7.2943 5.8339 8.0948 5.1734 8.9548 4.5932C9.8148 4.0128 10.7338 3.5124 11.7008 3.10395C12.6683 2.6955 13.6848 2.3785 14.7383 2.1635C15.7913 1.94855 16.8818 1.83635 17.9998 1.83635L18 1.83495Z" fill="#2C3242"/>
</svg>
