<svg width="41" height="32" viewBox="0 0 41 32" fill="none" xmlns="http://www.w3.org/2000/svg">
<path d="M20.08 3.05433C19.4539 1.49585 17.9286 -0.187286 15.0719 0.0439316C11.4328 0.438321 10.2987 3.91503 10.8488 5.98913C9.39936 5.01073 6.93488 4.58052 4.78377 6.41746C2.00632 9.19304 3.49195 12.9467 5.01879 13.847C3.33607 13.6917 0.676565 14.8253 0.088226 17.7905C-0.537651 21.472 2.27751 23.6182 5.01879 23.6182H35.4165C38.5864 23.6182 40.3451 20.8843 40.1479 18.306C39.8369 14.9411 36.7482 13.6501 35.0634 13.9267C36.471 13.1438 38.3509 9.46602 35.4923 6.57474C33.2231 4.423 30.3305 5.20595 29.3133 6.14442C29.8616 4.3469 28.9625 0.631201 25.2821 0.0435315C25.0277 0.0151364 24.7827 -6.10352e-05 24.5493 -6.10352e-05C21.7398 0.000338896 20.4765 2.04776 20.08 3.05433Z" fill="white"/>
<path d="M5.29223 7.00349C3.68739 8.45181 3.10329 11.7335 5.99633 13.6519L17.538 21.5459L11.9418 8.76455C10.7691 5.74845 7.56106 5.09073 5.29223 7.00349Z" fill="#2C3242"/>
<path d="M15.2258 0.789196C13.3497 0.827304 10.5325 3.05452 11.7862 6.45553L17.5742 20.0638L19.608 5.75051C20.0787 2.19398 17.3789 0.552208 15.2258 0.789196Z" fill="#2C3242"/>
<path d="M20.5114 5.20439H21.6059C21.6059 5.20439 22.1903 5.20439 22.2699 5.47926C21.8392 5.82988 20.6669 5.87382 20.8226 7.74669L22.6624 20.0616L28.4108 6.41767C29.5866 3.37122 27.1186 0.826974 24.9293 0.749216C24.8271 0.741903 24.7244 0.735962 24.6182 0.735962C22.6532 0.735905 20.4014 2.1596 20.5114 5.20439Z" fill="#2C3242"/>
<path d="M28.1771 8.88043L22.74 21.5085L34.2782 13.5728C36.938 11.6921 36.509 8.68532 35.0202 7.19907C34.396 6.49953 33.25 5.95917 32.036 5.95917C30.6018 5.95888 29.0668 6.71726 28.1771 8.88043Z" fill="#2C3242"/>
<path d="M32.9872 15.3698L22.1514 22.9151H35.4934C38.2306 22.9151 39.9897 20.1016 39.2077 17.5196C38.6839 15.8967 37.1344 14.6227 35.3359 14.6209C34.5788 14.6212 33.776 14.8485 32.9872 15.3698Z" fill="#2C3242"/>
<path d="M4.98019 22.9151H18.1253L7.28679 15.3698C4.78282 13.7659 1.96732 14.7044 0.950877 17.3659C0.0892855 20.4127 2.24051 22.9151 4.98019 22.9151Z" fill="#2C3242"/>
<path d="M0.0422363 28.3758C0.0422363 29.6608 1.09599 31.9999 5.11957 31.9999C8.82922 31.9999 10.0009 30.3029 10.0009 29.5248H7.1289C7.1289 29.5248 6.9925 30.5528 5.37242 30.5528C3.75131 30.5528 3.31289 29.2039 3.31289 28.4238C3.31289 27.6468 3.75131 26.3706 5.37242 26.3706C6.9925 26.3706 7.1289 27.2656 7.1289 27.2656H10.0009C10.0009 26.4866 9.14121 24.8136 5.11957 24.8136C1.09599 24.8136 0.0422363 27.3047 0.0422363 28.3758Z" fill="#2C3242"/>
<path d="M30.1609 28.3758C30.1609 29.6608 31.2157 31.9999 35.2382 31.9999C38.9475 31.9999 40.1196 30.3029 40.1196 29.5248H37.2497C37.2497 29.5248 37.1126 30.5528 35.4922 30.5528C33.8709 30.5528 33.432 29.2039 33.432 28.4238C33.432 27.6468 33.8709 26.3706 35.4922 26.3706C37.1126 26.3706 37.2497 27.2656 37.2497 27.2656H40.1196C40.1196 26.4866 39.2609 24.8136 35.2382 24.8136C31.2158 24.8136 30.1609 27.3047 30.1609 28.3758Z" fill="#2C3242"/>
<path d="M17.8495 24.9337V29.2838L14.5072 24.9337H10.7473V31.8239H13.3249V27.4238L16.6088 31.8239H20.4273V24.9337H17.8495Z" fill="#2C3242"/>
<path d="M26.1095 30.1778V30.1869H23.9618V28.9218H26.1095V28.9259C26.5681 28.9259 26.9387 29.2069 26.9387 29.5529C26.9387 29.898 26.5681 30.1778 26.1095 30.1778ZM23.9815 26.2738H26.051V26.2767C26.4016 26.2767 26.6859 26.5066 26.6859 26.7897C26.6859 27.0738 26.4016 27.3018 26.051 27.3018V27.3048H23.9815V26.2738ZM28.2189 28.1608C28.6882 28.1608 29.6693 27.6178 29.6693 26.5657C29.6693 25.0676 26.8711 24.9337 26.4418 24.9337H21.2861V31.8239H26.4418C28.9215 31.8239 29.9176 31.043 29.9176 29.7389C29.9176 28.4348 28.2189 28.1608 28.2189 28.1608Z" fill="#2C3242"/>
</svg>
