<svg width="80" height="20" viewBox="0 0 80 20" fill="none" xmlns="http://www.w3.org/2000/svg">
<path fill-rule="evenodd" clip-rule="evenodd" d="M25.4121 15.7485L26.4036 13.4564C27.4746 14.2531 28.9015 14.6673 30.3094 14.6673C31.3486 14.6673 32.0064 14.2689 32.0064 13.6651C31.9906 11.9768 25.7808 13.2983 25.7331 9.065C25.7172 6.91514 27.6367 5.25848 30.3571 5.25848C31.9747 5.25848 33.5891 5.65684 34.7427 6.56421L33.8147 8.90376C32.7596 8.23351 31.4471 7.75611 30.1982 7.75611C29.3496 7.75611 28.7903 8.15447 28.7903 8.66348C28.8062 10.3201 35.0637 9.41277 35.1272 13.4564C35.1272 15.6537 33.2554 17.1997 30.5668 17.1997C28.5965 17.1965 26.7882 16.7349 25.4121 15.7485ZM63.4876 12.6281C62.9919 13.488 62.0639 14.0761 60.9897 14.0761C59.4039 14.0761 58.1263 12.802 58.1263 11.2275C58.1263 9.65305 59.4071 8.37894 60.9897 8.37894C62.0607 8.37894 62.9919 8.96699 63.4876 9.82693L66.2239 8.31571C65.2006 6.50098 63.2302 5.25848 60.9897 5.25848C57.6751 5.25848 54.9865 7.93316 54.9865 11.2307C54.9865 14.5282 57.6751 17.2029 60.9897 17.2029C63.2461 17.2029 65.2006 15.9762 66.2239 14.1456L63.4876 12.6281ZM36.5033 0.304321H39.9292V16.9752H36.5033V0.304321ZM67.5682 0.304321V16.9752H70.994V11.9736L75.0587 16.9752H79.4443L74.2737 11.0346L79.0598 5.49244H74.8648L70.9909 10.0925V0.304321H67.5682Z" fill="#2C3242"/>
<path d="M50.1174 12.6589C49.6217 13.4715 48.5984 14.0753 47.4448 14.0753C45.8589 14.0753 44.5814 12.8012 44.5814 11.2268C44.5814 9.65231 45.8621 8.3782 47.4448 8.3782C48.5984 8.3782 49.6217 9.01367 50.1174 9.842V12.6589ZM50.1174 5.49486V6.848C49.5581 5.90902 48.1662 5.25458 46.7075 5.25458C43.6979 5.25458 41.3303 7.89764 41.3303 11.211C41.3303 14.5243 43.6979 17.1989 46.7075 17.1989C48.163 17.1989 49.5549 16.5477 50.1174 15.6055V16.9587H53.5433V5.49486H50.1174Z" fill="#2C3242"/>
<path fill-rule="evenodd" clip-rule="evenodd" d="M4.24405 12.643C4.24405 13.8065 3.30019 14.7455 2.13069 14.7455C0.961195 14.7455 0.017334 13.8033 0.017334 12.643C0.017334 11.4827 0.961195 10.5406 2.13069 10.5406H4.24405V12.643ZM5.29914 12.643C5.29914 11.4796 6.243 10.5406 7.4125 10.5406C8.582 10.5406 9.52586 11.4796 9.52586 12.643V17.8975C9.52586 19.061 8.582 20 7.4125 20C6.243 20 5.29914 19.061 5.29914 17.8975V12.643Z" fill="#2C3242"/>
<path fill-rule="evenodd" clip-rule="evenodd" d="M7.41106 4.20487C6.24156 4.20487 5.2977 3.26589 5.2977 2.10244C5.2977 0.938983 6.24156 0 7.41106 0C8.58055 0 9.52442 0.938983 9.52442 2.10244V4.20487H7.41106ZM7.41106 5.27032C8.58055 5.27032 9.52442 6.2093 9.52442 7.37275C9.52442 8.53621 8.58055 9.47519 7.41106 9.47519H2.11336C0.943861 9.47519 0 8.53304 0 7.37275C0 6.21246 0.943861 5.27032 2.11336 5.27032H7.41106Z" fill="#2C3242"/>
<path fill-rule="evenodd" clip-rule="evenodd" d="M15.8743 7.37275C15.8743 6.2093 16.8182 5.27032 17.9877 5.27032C19.1572 5.27032 20.1011 6.2093 20.1011 7.37275C20.1011 8.53621 19.1572 9.47519 17.9877 9.47519H15.8743V7.37275ZM14.8193 7.37275C14.8193 8.53621 13.8754 9.47519 12.7059 9.47519C11.5364 9.47519 10.5925 8.53621 10.5925 7.37275V2.10244C10.5925 0.938983 11.5364 0 12.7059 0C13.8754 0 14.8193 0.938983 14.8193 2.10244V7.37275Z" fill="#2C3242"/>
<path fill-rule="evenodd" clip-rule="evenodd" d="M12.7059 15.7951C13.8754 15.7951 14.8193 16.7341 14.8193 17.8975C14.8193 19.061 13.8754 20 12.7059 20C11.5364 20 10.5925 19.061 10.5925 17.8975V15.7951H12.7059ZM12.7059 14.7455C11.5364 14.7455 10.5925 13.8065 10.5925 12.643C10.5925 11.4796 11.5364 10.5406 12.7059 10.5406H18.0036C19.1731 10.5406 20.117 11.4796 20.117 12.643C20.117 13.8065 19.1731 14.7455 18.0036 14.7455H12.7059Z" fill="#2C3242"/>
</svg>
