<svg width="92" height="24" viewBox="0 0 92 24" fill="none" xmlns="http://www.w3.org/2000/svg">
<path d="M33.4951 9.58844C32.8532 9.29054 32.1781 9.06887 31.4839 8.92801C30.5789 8.71271 30.0082 8.50871 29.7719 8.31602C29.6862 8.25017 29.6168 8.16576 29.5689 8.06922C29.521 7.97268 29.4959 7.86656 29.4955 7.75893C29.4931 7.64717 29.5189 7.53659 29.5706 7.43729C29.6222 7.33799 29.6982 7.25316 29.7914 7.19054C30.0971 6.96878 30.5209 6.85844 31.0628 6.85952C31.5864 6.85952 31.9798 6.96286 32.2432 7.16955C32.5066 7.37624 32.6773 7.7148 32.7553 8.18523L34.6332 8.10287C34.6342 7.72047 34.5524 7.34232 34.3933 6.99407C34.2343 6.64581 34.0017 6.3356 33.7113 6.08444C33.1206 5.58064 32.2459 5.32874 31.0872 5.32874C30.4651 5.31378 29.8463 5.42363 29.2679 5.65169C28.8036 5.83878 28.4069 6.16069 28.1298 6.57532C27.869 6.96292 27.7298 7.41868 27.7299 7.88488C27.7264 8.23527 27.8007 8.58211 27.9474 8.90079C28.0941 9.21948 28.3095 9.50221 28.5785 9.72893C28.9818 10.0874 29.6825 10.3894 30.6808 10.6348C31.4563 10.827 31.9538 10.9577 32.1717 11.0353C32.426 11.1075 32.6573 11.2438 32.8431 11.4309C32.9716 11.5868 33.0396 11.7833 33.035 11.9847C33.0318 12.1571 32.989 12.3264 32.9098 12.4797C32.8306 12.6331 32.7172 12.7665 32.5781 12.8696C32.2692 13.1172 31.8161 13.241 31.2189 13.241C30.7321 13.2665 30.2526 13.1156 29.8695 12.8163C29.5367 12.5321 29.3151 12.0881 29.2045 11.4842L27.3933 11.6585C27.5136 12.6845 27.887 13.4649 28.5135 13.9999C29.14 14.535 30.0353 14.8041 31.1994 14.8073C31.8843 14.8277 32.5665 14.7141 33.2073 14.4731C33.72 14.2703 34.1556 13.9128 34.4527 13.4509C34.741 13.0126 34.8941 12.5002 34.8933 11.9767C34.91 11.4676 34.7827 10.9642 34.5259 10.5234C34.2753 10.1236 33.9187 9.8001 33.4951 9.58844ZM59.5086 9.58844C58.8665 9.29081 58.1915 9.06914 57.4974 8.92801C56.5923 8.71271 56.0217 8.50871 55.7854 8.31602C55.6997 8.25017 55.6302 8.16576 55.5823 8.06922C55.5344 7.97268 55.5093 7.86656 55.509 7.75893C55.5065 7.64717 55.5323 7.53659 55.584 7.43729C55.6357 7.33799 55.7117 7.25316 55.8049 7.19054C56.1105 6.96878 56.5344 6.85844 57.0763 6.85952C57.5998 6.85952 57.9927 6.96286 58.255 7.16955C58.5173 7.37624 58.6886 7.7148 58.7688 8.18523L60.6466 8.10287C60.6472 7.72054 60.5652 7.34252 60.4062 6.99433C60.2472 6.64614 60.0148 6.33587 59.7248 6.08444C59.1384 5.58064 58.2659 5.32874 57.1072 5.32874C56.4867 5.31444 55.8696 5.42427 55.2927 5.65169C54.8246 5.83745 54.4239 6.1594 54.1433 6.57532C53.8829 6.96306 53.7443 7.41883 53.7449 7.88488C53.7415 8.23527 53.8158 8.58211 53.9625 8.90079C54.1091 9.21948 54.3246 9.50221 54.5936 9.72893C54.9968 10.0874 55.6976 10.3894 56.6959 10.6348C57.4714 10.827 57.9689 10.9577 58.1867 11.0353C58.4415 11.1068 58.6729 11.2431 58.8582 11.4309C58.9873 11.5865 59.0554 11.7832 59.0501 11.9847C59.0471 12.1569 59.0045 12.3262 58.9256 12.4795C58.8467 12.6329 58.7336 12.7663 58.5948 12.8696C58.2881 13.1172 57.8339 13.241 57.2324 13.241C56.7456 13.2668 56.2659 13.1159 55.8829 12.8163C55.548 12.5321 55.3263 12.0881 55.218 11.4842L53.4051 11.6585C53.5276 12.6845 53.901 13.4649 54.5254 13.9999C55.1497 14.535 56.0455 14.8041 57.2129 14.8073C57.8978 14.8275 58.58 14.714 59.2208 14.4731C59.7335 14.2703 60.1691 13.9128 60.4662 13.4509C60.7544 13.0126 60.9076 12.5002 60.9068 11.9767C60.9235 11.4676 60.7962 10.9642 60.5393 10.5234C60.2923 10.1254 59.9403 9.80204 59.5216 9.58844H59.5086ZM70.0131 14.6248H71.9641V5.46115H70.0131V14.6248ZM78.7341 11.581L74.8142 5.46115H72.9445V14.6248H74.7411V8.65027L78.6024 14.6248H80.5437V5.46115H78.7471L78.7341 11.581ZM67.1289 9.06849H63.4106V5.46115H61.5083V14.6248H63.4106V10.6187H67.1338V14.6248H69.036V5.46115H67.1338L67.1289 9.06849ZM48.5943 5.46115L45.2012 14.6248H47.0692L47.7879 12.5434H51.2737L52.0297 14.6248H53.9433L50.4542 5.46115H48.5943ZM48.326 10.9997L49.5031 7.59907L50.7046 10.9997H48.326ZM40.2131 11.7877L38.2182 5.46115H35.2559V14.7346H37.1793V8.37577L39.2067 14.7346H41.2L43.2339 8.37577V14.7346H45.1573V5.46115H42.1885L40.2131 11.7877ZM85.8683 10.8479L85.9073 10.8802L87.117 12.0816L88.1152 11.9702C87.7097 12.4078 87.1764 12.7083 86.5901 12.8295C86.0039 12.9507 85.3942 12.8864 84.8465 12.6458C84.2989 12.4052 83.8409 12.0003 83.5368 11.488C83.2327 10.9757 83.0979 10.3816 83.1511 9.78921C83.2044 9.19684 83.4431 8.6359 83.8338 8.18517C84.2244 7.73443 84.7474 7.41653 85.3293 7.2761C85.9112 7.13567 86.5227 7.17977 87.0781 7.40219C87.6335 7.62462 88.1047 8.0142 88.4258 8.51625L90.1085 7.94301C89.6622 7.0846 88.9542 6.38824 88.0855 5.9534C87.2169 5.51856 86.2321 5.3675 85.2718 5.52179C84.3116 5.67607 83.425 6.12782 82.7387 6.81249C82.0524 7.49717 81.6016 8.37974 81.4505 9.33413C81.2995 10.2885 81.456 11.2659 81.8978 12.1266C82.3395 12.9874 83.0438 13.6875 83.9101 14.1269C84.7764 14.5663 85.7604 14.7225 86.7215 14.5733C87.6825 14.424 88.5715 13.977 89.2615 13.2959L89.2289 14.1743L90.3849 15.3224L91.3246 9.98406L85.8683 10.8479Z" fill="#2C3242"/>
<path d="M48.5046 20.3588H50.0784V21.3471C49.8707 21.5169 49.6339 21.6482 49.3793 21.7346C49.104 21.8389 48.8122 21.8936 48.5176 21.8961C48.2555 21.9067 47.9939 21.8652 47.7482 21.774C47.5025 21.6828 47.2776 21.5436 47.0869 21.3648C46.7194 21.0117 46.5357 20.4799 46.5357 19.7694C46.5233 19.3595 46.6115 18.9528 46.7926 18.5842C46.9427 18.2836 47.1799 18.0345 47.4738 17.8689C47.7848 17.7088 48.1317 17.6299 48.4818 17.6396C48.7294 17.6359 48.9754 17.6786 49.207 17.7655C49.4053 17.84 49.583 17.9601 49.7256 18.1159C49.8814 18.3134 49.9924 18.542 50.0508 18.7861L50.6897 18.6133C50.6206 18.2853 50.4734 17.9786 50.2605 17.7187C50.0613 17.4962 49.8117 17.3241 49.5321 17.2165C49.202 17.0923 48.851 17.032 48.4981 17.0389C48.0177 17.0268 47.5416 17.1316 47.1112 17.3441C46.7078 17.5614 46.378 17.8923 46.1634 18.2952C45.9126 18.7604 45.7877 19.2823 45.8008 19.8098C45.7862 20.3227 45.9103 20.8301 46.1601 21.2792C46.3883 21.6766 46.727 22.0001 47.1356 22.2109C47.5706 22.43 48.0527 22.5408 48.5404 22.5339C48.933 22.534 49.3225 22.4634 49.6898 22.3256C49.821 22.2754 49.9491 22.2177 50.0735 22.1528V22.4758H50.7694V21.7055V19.7291H48.4932L48.5046 20.3588ZM31.4446 20.8303C31.3162 21.2017 31.2219 21.4859 31.1585 21.6813L30.9032 20.8965L29.6269 17.139H28.5571V22.4451H29.2416V17.9238L30.8008 22.4451H31.4397L33.0071 18.0029V22.4451H33.6915V17.1342H32.7339L31.4446 20.8303ZM39.5381 17.139L37.6001 22.4451H38.3008L38.8471 20.8384H40.9607L41.5444 22.4451H42.3053L40.2469 17.139H39.5381ZM39.0503 20.2668L39.6096 18.7102C39.7259 18.3792 39.8178 18.0403 39.8844 17.6961C39.9592 17.9792 40.0773 18.3463 40.2388 18.7974L40.7623 20.2668H39.0503ZM56.4192 17.1342L54.4682 22.4451H55.1705L55.7168 20.8384H57.8304L58.4157 22.4451H59.1831L57.1248 17.139L56.4192 17.1342ZM55.9217 20.2619L56.481 18.7053C56.5986 18.3747 56.691 18.0357 56.7574 17.6913C56.8322 17.9744 56.9503 18.3415 57.1118 18.7925L57.6353 20.2619H55.9217ZM79.3566 21.3148L76.7146 17.1406H76.0317V22.4451H76.6723V18.2661L79.3111 22.4451H79.9939V17.1342H79.3582L79.3566 21.3148ZM85.2242 21.8202V20.0084H88.0044V19.3771H85.2242V17.7623H88.193V17.1358H84.5593V22.4451H88.3101V21.8186L85.2242 21.8202ZM70.8014 22.4451H71.4664V17.1342H70.8014V22.4451ZM63.8867 21.4456L66.7043 17.7623V17.1358H63.1047V17.7623H65.9092C65.7467 17.9464 65.5662 18.1547 65.3873 18.3921L62.8153 21.783V22.4289H66.7872V21.8024H63.581L63.8867 21.4456Z" fill="#2C3242"/>
<path d="M10.7339 13.677C7.51797 12.4724 4.82232 10.3216 4.64185 7.52159C4.52804 5.73567 4.98165 4.17421 6.15064 2.86142L1.37554 3.99175C1.14672 4.04597 0.930916 4.1445 0.740496 4.28169C0.550076 4.41888 0.388779 4.59203 0.265842 4.79122C0.142906 4.99042 0.0607455 5.21175 0.0240681 5.44253C-0.0126093 5.67331 -0.0030834 5.90901 0.0521001 6.13613L4.02566 22.6389C4.13633 23.0968 4.42561 23.4924 4.8299 23.7386C5.23418 23.9848 5.72036 24.0614 6.18153 23.9517L8.22684 23.4672C7.02825 23.0773 5.86356 22.5913 4.74428 22.014L6.65139 17.7187C6.65139 17.7187 8.89343 19.7 12.1159 19.7C15.3383 19.7 16.769 15.9441 10.7339 13.677ZM24.1243 17.8657L20.1459 1.36294C20.0356 0.905005 19.7467 0.50932 19.3427 0.262849C18.9388 0.0163783 18.4528 -0.0607092 17.9916 0.04853L14.5774 0.855904C16.1504 1.11456 17.6714 1.62212 19.0826 2.35924L17.5917 6.46231C17.5917 6.46231 16.3512 5.08655 13.0263 4.91861C9.86406 4.75714 8.1049 8.14811 14.2717 10.1601C18.9867 11.6925 20.5036 14.6491 20.4255 17.3812C20.386 18.6129 19.9971 19.8085 19.3037 20.8303L22.8058 19.9987C23.2636 19.887 23.6585 19.6002 23.9046 19.2007C24.1506 18.8012 24.2278 18.3214 24.1194 17.8657H24.1243Z" fill="#2C3242"/>
<path d="M19.7151 1.46463C19.6308 1.12237 19.4134 0.827175 19.1106 0.643527C18.8078 0.459879 18.4442 0.402701 18.099 0.484481L15.6148 1.07063C16.8178 1.35947 17.9808 1.79329 19.0778 2.36243L17.5869 6.46551C17.5869 6.46551 16.3464 5.08974 13.0215 4.92181C9.85928 4.76033 8.10011 8.1513 14.2669 10.1633C15.883 10.6865 17.1219 11.3792 18.0503 12.1704L18.1576 12.1349C19.3591 11.6973 20.5102 10.1391 21.3556 8.27725L19.7151 1.46463ZM4.6452 7.52155C4.54765 5.98431 4.86794 4.61501 5.70525 3.42494L1.47806 4.4277C1.13394 4.51146 0.837243 4.7272 0.652898 5.02771C0.468553 5.32821 0.411572 5.68901 0.494424 6.03114L2.7706 15.5146C3.49085 14.6313 5.2175 12.8147 7.71479 12.1333C5.98002 10.9367 4.76389 9.36559 4.6452 7.52155Z" fill="#2C3242"/>
</svg>
