<svg width="41" height="34" viewBox="0 0 41 34" fill="none" xmlns="http://www.w3.org/2000/svg">
<path d="M20.0337 0C17.757 0 15.6051 0.543148 13.6972 1.50133L13.8528 1.79961C15.6996 0.873963 17.7416 0.370349 19.8635 0.344567V2.89873C18.1886 2.92291 16.5404 3.32263 15.0405 4.06845L15.1952 4.36581H15.1961C16.6321 3.65421 18.2178 3.26496 19.8635 3.23998V5.55271C18.6169 5.57584 17.3905 5.87152 16.2704 6.419L16.3726 6.61494L16.2704 6.419C15.4611 6.81372 14.7185 7.33245 14.0694 7.95642L12.4313 6.31839C13.2455 5.5278 14.178 4.86903 15.1952 4.36581L15.0405 4.06845C13.9931 4.5881 13.0326 5.26709 12.1933 6.08119L10.3834 4.27127C11.4054 3.27333 12.5757 2.43957 13.8528 1.79961L13.6973 1.50145C10.9394 2.88762 8.69461 5.14615 7.32735 7.91437C6.36749 9.85718 5.86897 11.9953 5.87059 14.1623C5.87059 15.5339 6.06654 16.8737 6.44044 18.1542L6.77469 18.07C6.41891 16.8557 6.23096 15.5985 6.21607 14.3332H8.76944C8.78442 15.3883 8.94699 16.4361 9.25243 17.446L9.58416 17.3626C9.28761 16.3924 9.12695 15.3749 9.11057 14.3332H11.4232C11.4301 14.6736 11.4576 15.0096 11.5032 15.3422C11.3424 15.3628 11.1911 15.4152 11.1911 15.4152L11.119 15.6472C10.9625 15.6765 10.862 15.9369 10.862 15.9369C10.7339 15.9807 10.6334 16.1405 10.6764 16.1835C10.7194 16.2274 10.605 16.2419 10.605 16.2419V16.5608L10.5337 16.6623L10.5475 17.0103C10.6334 17.0103 10.6197 17.1693 10.6197 17.1693C10.477 17.1839 10.5045 17.3729 10.5045 17.3729L10.2055 17.4743L10.1478 17.5612L9.77655 17.5465L9.67686 17.6479L9.67606 17.6471C9.64428 17.5531 9.61391 17.4585 9.58496 17.3635L9.25323 17.447C9.26354 17.4804 9.27477 17.5131 9.28589 17.5466H8.86226L8.83384 17.4745L8.69118 17.4452L8.67662 17.2854L8.46257 17.2999L8.4196 17.3868L8.191 17.4013C8.20475 17.5466 7.9624 17.764 7.93409 17.7065C7.90487 17.6481 7.74754 17.4882 7.81973 17.4598C7.89112 17.4306 8.07675 17.4013 8.07675 17.4013V17.2999L7.54816 17.2854L7.49064 17.373L7.27659 17.3868V17.6188L7.17689 17.6481C7.1047 17.6918 7.19064 17.8509 7.19064 17.8509C7.29034 17.9523 7.17689 18.1121 7.17689 18.1121C7.09095 18.1989 7.24736 18.3587 7.24736 18.3587C7.36253 18.3871 7.17689 18.4748 7.17689 18.4748C7.20531 18.6192 7.29034 18.663 7.29034 18.663C7.20531 18.8083 7.34798 18.8804 7.34798 18.8804L7.36253 19.127L7.46222 19.1847V19.3445L7.51894 19.4459H7.74754L7.73379 19.0833C7.53361 18.8512 7.90487 18.7936 7.91943 18.8804C7.93409 18.9672 8.09131 19.0111 8.09131 19.0111C8.11973 19.2285 8.36208 19.3583 8.43335 19.1417C8.50554 18.9234 8.56226 19.054 8.60523 19.1555C8.6482 19.2569 8.91898 19.5035 8.91898 19.5035H9.13383L9.16213 19.7072C9.4054 19.6925 9.47668 19.7218 9.57637 20.0544C9.67698 20.3879 9.94763 20.4755 9.94763 20.4755L10.1479 20.4608C10.1479 20.2864 10.3481 20.4901 10.3481 20.5769C10.3481 20.6637 10.7341 20.9971 10.7341 20.9971L11.1191 21.084L11.1903 21.1415C11.4286 21.4428 11.6819 21.732 11.9493 22.0078L10.1428 23.8135C8.54508 22.1762 7.40378 20.2108 6.77549 18.0708L6.44124 18.155C7.09955 20.4076 8.31384 22.4727 10.0198 24.1777C11.1749 25.3328 12.4949 26.2627 13.9267 26.9485L14.0959 26.6477C12.7415 26.0023 11.4885 25.1326 10.3842 24.054L12.1898 22.2484C13.1283 23.1594 14.1983 23.8865 15.3558 24.4149L15.5243 24.1159C14.3797 23.5963 13.3334 22.8832 12.4313 22.0078L12.7673 21.6717C12.7845 21.7044 12.7992 21.7439 12.8051 21.7947C12.8335 22.012 12.9332 21.9683 12.9332 21.9683L13.7479 21.9545L14.0341 21.7078L14.7629 21.6932C15.1341 21.6786 14.9055 21.1707 14.8342 21.1707C14.7921 21.1381 14.7835 21.0701 14.7896 20.9945C15.366 21.4383 15.9964 21.8073 16.6656 22.0928L16.834 21.7947C16.0609 21.4696 15.342 21.0285 14.7019 20.4866L14.3152 20.1257L16.1148 18.3261C16.6857 18.8665 17.3626 19.2826 18.1025 19.5482C18.3013 19.6193 18.5038 19.6792 18.7093 19.7277C18.6732 19.7586 18.6535 19.7879 18.6621 19.8085C18.6904 19.8807 18.5477 19.9538 18.5477 19.9538L18.4188 19.9968L18.3328 20.1274L18.1619 20.1849L18.1327 20.4901L18.0475 20.5476V20.6782L17.947 20.7074V20.7796L17.8044 20.7943L17.8903 21.0117L18.0046 21.0701C18.2049 21.0985 18.1189 21.3451 18.1189 21.3451L18.2332 21.3598L18.2908 21.5187L18.4042 21.7508C18.4472 21.9253 18.5761 21.8814 18.6336 21.8668C18.6904 21.8531 18.7471 22.0412 18.7471 22.0412L19.3186 22.0559C19.3186 22.0559 19.2902 22.1134 19.3899 22.1427C19.4449 22.159 19.6693 22.1745 19.8643 22.1779V22.4331C18.8233 22.4139 17.7954 22.1976 16.8349 21.7955L16.6665 22.0937C17.6677 22.5191 18.748 22.7528 19.8643 22.7744V25.087C18.3432 25.0639 16.8736 24.7295 15.5252 24.1176L15.3568 24.4167C16.7559 25.0561 18.283 25.405 19.8643 25.4282V27.9824C17.8361 27.9574 15.8784 27.4977 14.0969 26.6494L13.9275 26.9494C15.8105 27.8509 17.886 28.327 20.0354 28.327C22.2896 28.327 24.4622 27.8002 26.4174 26.811C27.76 26.1318 28.9862 25.2435 30.05 24.1795C31.1862 23.0433 32.1032 21.7465 32.7847 20.3422L32.783 20.3388C33.7069 18.4369 34.1968 16.3374 34.1968 14.1614C34.1968 12.3102 33.8418 10.5148 33.1689 8.84929C32.4659 7.11076 31.4148 5.51306 30.0483 4.1466C28.6767 2.77418 27.0722 1.72134 25.325 1.01835V1.02006C23.6646 0.351443 21.8762 0 20.0337 0ZM20.2038 0.344567C21.9433 0.366109 23.6312 0.708956 25.1995 1.34068L25.2003 1.33896C26.8521 2.00415 28.3733 2.99075 29.683 4.26955L28.1533 5.80011C28.1009 5.81305 28.045 5.81901 28.0047 5.80182C27.905 5.75885 28.0476 5.65664 28.0476 5.65664V5.54056L27.9617 5.45382C27.9617 5.45382 27.7193 5.48304 27.7047 5.44007C27.6901 5.39618 27.6479 5.20803 27.6479 5.20803L27.6334 4.96132L27.5337 4.91755L27.519 4.83069L27.3618 4.84536V4.67084L27.2759 4.64254L27.1907 4.59865L27.1762 4.42425L26.8624 4.4105L26.7619 4.2652L26.6476 4.09079L26.291 4.06238L26.205 3.97563L26.0624 3.94641L25.9618 3.90253L25.9188 3.97563L25.6472 3.99019L25.6335 4.07704C25.5485 4.12001 25.3189 4.11738 25.1377 4.11658C24.853 3.97186 24.5622 3.83939 24.2662 3.71953L24.1415 4.03659C24.3798 4.13347 24.6146 4.23869 24.8455 4.35205C24.8291 4.4027 24.8084 4.4388 24.7758 4.4388C24.7045 4.4388 24.7328 4.62787 24.7328 4.62787C24.7328 4.62787 24.9194 4.62787 24.9761 4.64254C25.0336 4.65629 25.0336 4.80147 25.0336 4.80147C25.2477 4.78692 25.3336 5.0774 25.3052 5.14959C25.276 5.22178 25.3903 5.22178 25.3903 5.22178C25.3903 5.22178 25.3903 5.45382 25.3619 5.51226C25.3336 5.56978 25.5475 5.61367 25.6052 5.70041C25.6619 5.78727 25.576 6.07775 25.533 6.09231C25.4908 6.10697 25.6472 6.14994 25.6335 6.22213C25.6189 6.29513 25.6764 6.22213 25.6902 6.33901C25.7049 6.45417 25.7332 6.70077 25.7332 6.70077L25.9335 6.71543C25.9618 6.52717 26.3305 6.51949 26.3907 6.54183C26.633 6.62858 26.8195 7.00592 26.8195 7.09266C26.8195 7.17952 26.6613 7.19407 26.6613 7.19407L26.6682 7.2878L26.1672 7.78878C26.1157 7.75704 26.0641 7.74157 26.034 7.75956C25.9627 7.80253 25.991 7.45453 25.991 7.45453C25.991 7.45453 26.1199 7.36767 26.1766 7.41156C26.2343 7.45453 25.6911 6.68621 25.5768 6.75921C25.4625 6.8314 25.2055 6.68621 25.2202 6.55558C25.2339 6.42576 24.7053 5.99009 24.7053 5.99009C24.7053 5.99009 24.5344 5.87493 24.5059 5.96167C24.4767 6.04853 24.42 6.10697 24.5059 6.14994C24.5911 6.19371 24.5764 6.07775 24.677 6.17916C24.7767 6.28057 24.9631 6.4112 24.8909 6.49795C24.8493 6.54939 24.7952 6.58935 24.7337 6.61402L24.8342 6.72999H24.9916L25.0199 6.97669C25.0199 6.97669 25.1909 7.06344 25.2339 7.16485C25.2622 7.23108 25.27 7.27829 25.2614 7.31954C24.9447 7.07644 24.6112 6.85589 24.2636 6.65952C24.249 6.75921 24.1786 6.87781 24.1339 6.88984C24.1003 6.89843 24.0212 6.90107 23.9654 6.88468C24.3705 7.10422 24.7566 7.35719 25.1196 7.64096V7.6436C25.1342 7.74501 25.2485 7.78798 25.2485 7.78798L25.313 7.79657C25.3585 7.83439 25.4041 7.873 25.4488 7.91173V8.03549C25.5485 8.00971 25.7022 8.12831 25.7306 8.22628L23.9543 10.0018C23.4543 9.52913 22.8728 9.15088 22.238 8.88539C21.5928 8.61629 20.9035 8.46829 20.2046 8.44881V5.89464C21.2229 5.91384 22.2288 6.12162 23.1713 6.50746H23.1721C23.4275 6.6124 23.6774 6.73027 23.9207 6.86062C23.9148 6.85515 23.9102 6.8483 23.9075 6.84067C23.9048 6.83303 23.904 6.82485 23.9053 6.81684C23.9198 6.72999 23.9765 6.52717 23.9765 6.52717C23.9748 6.52121 23.974 6.50998 23.9723 6.5023C23.7518 6.3883 23.5264 6.28392 23.2968 6.18947C22.3142 5.7883 21.2658 5.57267 20.2046 5.55351V4.27987C20.2975 4.28158 20.3378 4.24629 20.3481 4.20767C20.3619 4.14923 20.3765 4.13457 20.4625 4.12001C20.5475 4.10626 20.4478 3.93175 20.3619 3.94641C20.3009 3.95673 20.239 3.9369 20.2046 3.89829V3.23998C21.5753 3.26141 22.9049 3.5347 24.1415 4.03579L24.2662 3.71861C22.9899 3.20125 21.6192 2.92028 20.2037 2.89873L20.2038 0.344567ZM23.9723 6.5023C24.0703 6.55215 24.1674 6.60543 24.2637 6.65963C24.2686 6.6349 24.2683 6.60942 24.2629 6.5848C24.2337 6.48339 24.3771 6.44042 24.4485 6.55558L24.5912 6.54183L24.6195 6.4112L24.4201 6.25135H24.2629C24.2629 6.25135 24.2482 6.36732 24.1485 6.32435C24.048 6.28057 24.1056 6.29512 24.0196 6.28057C23.9423 6.26762 23.9577 6.42747 23.9724 6.5023H23.9723ZM23.9207 6.86062C23.932 6.87093 23.9474 6.87872 23.9654 6.88468C23.9508 6.87615 23.9359 6.86812 23.9207 6.86062ZM22.5972 0.952227L22.4624 1.03817L22.3713 0.980645L22.3257 1.05455L22.44 1.12675L22.4624 1.1413L22.4855 1.12663L22.6428 1.02533L22.5972 0.952227ZM23.2504 1.30287L23.1369 1.39396L23.064 1.32006L23.0038 1.38193L23.1035 1.48334L23.131 1.51084L23.1602 1.48678L23.3037 1.3699L23.2504 1.30287ZM9.47404 1.37334C8.05258 1.92772 6.52798 2.49321 5.60589 3.95157C5.06618 4.80411 4.98792 5.81477 4.56257 6.69572C5.34979 5.95572 6.265 5.41005 6.9319 4.52829C7.73379 3.46858 8.42991 2.28947 9.47404 1.37334ZM30.5966 1.37334C31.64 2.28947 32.337 3.46858 33.1388 4.52818C33.8057 5.41005 34.721 5.95572 35.5082 6.69572C35.0828 5.81477 35.0046 4.80411 34.4649 3.95157C33.5427 2.49321 32.0173 1.9276 30.5966 1.37334ZM22.2647 1.5521C22.1925 1.54522 22.0997 1.57536 22.0911 1.61226C22.0764 1.66989 21.9914 1.68444 21.9914 1.68444L21.6631 1.71366C21.6339 1.80041 21.4628 1.85805 21.4483 1.80041C21.4173 1.67322 21.2342 1.95946 21.4198 2.0179C21.6055 2.07634 21.7911 2.0179 21.7911 2.0179L21.8341 1.93115L22.5483 1.94571C22.6058 1.88727 22.6343 1.80041 22.6343 1.80041C22.6343 1.80041 22.8052 1.74197 22.8766 1.77119C22.9479 1.80052 22.8912 1.56837 22.8199 1.5977C22.7485 1.62601 22.6058 1.61226 22.6058 1.61226H22.348C22.3429 1.57364 22.3077 1.55645 22.2647 1.5521ZM20.9901 1.8443L20.8045 1.91649L20.6051 2.04712L20.3903 2.07634L20.276 2.20697L20.7332 2.24994L20.8192 2.39523L21.1483 2.42445L21.3623 2.64183C21.548 2.69935 21.5909 2.61261 21.4766 2.5112L21.2901 2.32304V2.16319L21.2334 2.10475L21.1758 1.90193L20.9901 1.8443ZM5.64107 3.30701C4.91664 3.49264 4.30818 3.96188 3.76504 4.56347C2.6297 5.82256 2.72767 7.68061 2.87893 9.33835C2.92625 9.84976 2.90047 10.2863 2.84283 10.8106C3.18659 10.1059 3.74956 9.43369 4.41131 8.93363C5.88858 7.81811 7.50599 6.37511 7.52833 4.47845C7.03939 5.84319 5.55169 6.40868 4.56257 7.342C4.03913 7.8353 3.63784 8.4291 3.40408 9.04616L3.36799 9.01785C3.49083 8.47207 3.72287 7.97625 3.8802 7.44857C4.3107 6.00304 4.23427 4.27471 5.64107 3.30701ZM34.4296 3.30701C35.8365 4.27471 35.76 6.00293 36.1906 7.44845C36.3478 7.97613 36.579 8.47207 36.7028 9.01774L36.6667 9.04616C36.4329 8.4291 36.0315 7.83519 35.5082 7.34189C34.519 6.40857 33.0314 5.84308 32.5423 4.47833C32.5647 6.37511 34.1813 7.818 35.6586 8.93352C36.3212 9.43369 36.8841 10.1058 37.2278 10.8105C37.1703 10.2862 37.1445 9.84965 37.191 9.33835C37.343 7.68049 37.441 5.82245 36.3058 4.56347C35.7626 3.96188 35.1541 3.49264 34.4296 3.30701ZM26.6735 3.59497C26.5574 3.59325 26.3882 3.67232 26.4053 3.75826C26.4199 3.83125 26.4766 3.90344 26.591 3.93266L26.8058 4.00485C26.8058 4.00485 27.073 4.3202 27.0627 4.16379C27.0344 3.72893 26.8341 3.71437 26.7629 3.62751C26.7448 3.60609 26.7121 3.59577 26.6735 3.59486V3.59497ZM22.1942 3.76938L22.1366 3.90001L22.2149 3.93518L22.2724 3.80455L22.1942 3.76938ZM22.4607 3.91204C22.4494 3.90253 22.373 4.01952 22.3154 4.0461C22.385 4.0822 22.4769 4.13457 22.4769 4.13457C22.5904 4.13457 22.6626 4.22234 22.6626 4.2652C22.6626 4.30908 22.819 4.29442 22.819 4.29442L22.8336 4.19301L22.7193 4.04782L22.6196 3.97563C22.6196 3.97563 22.4624 3.96097 22.4624 3.91719C22.4624 3.91467 22.4624 3.91295 22.4607 3.91204ZM22.3154 4.0461C22.251 4.01264 22.2045 3.99282 22.2767 4.04782C22.287 4.05642 22.3008 4.05298 22.3154 4.0461ZM21.8384 4.00405L21.8298 4.09079L21.9519 4.10363L22.0413 4.24457L22.1125 4.19816L22.0138 4.03923L22.0017 4.02112L21.9811 4.01941L21.8384 4.00405ZM18.5357 4.36753C18.4575 4.37005 18.3861 4.38471 18.3913 4.4105C18.406 4.48269 18.5194 4.56943 18.5194 4.56943C18.5194 4.56943 18.7342 4.5849 18.748 4.62787C18.7626 4.67176 18.9061 4.68551 18.9199 4.64254C18.9344 4.59865 18.9912 4.51191 18.8632 4.51191C18.7342 4.51191 18.7625 4.43972 18.7196 4.39594C18.6982 4.3744 18.6139 4.365 18.5357 4.36753ZM29.9246 4.51099C31.2017 5.81913 32.1865 7.33765 32.8517 8.986C33.4869 10.557 33.8307 12.2474 33.8513 13.9903H31.2979C31.2773 12.5999 31.004 11.2514 30.5038 9.99495C30.4314 9.8134 30.3543 9.63374 30.2727 9.45615C30.2968 9.37961 30.3405 9.2971 30.4333 9.32552C30.576 9.36929 30.4763 9.00662 30.4763 9.00662C30.4763 9.00662 30.2769 8.86144 30.2907 8.78925C30.3054 8.71614 30.0905 8.57176 30.1051 8.51332C30.1188 8.45488 29.9194 8.33972 29.9332 8.28128C29.9478 8.22376 29.8335 8.06391 29.8335 8.06391L29.6195 7.86109L29.5903 7.73045L29.4192 7.71579L29.0764 7.29559L29.0901 7.17952L28.9905 7.16496V7.00591L28.8908 6.94748L28.7334 6.93292L28.4189 6.5848L28.3906 6.42587H28.2333L28.2565 6.18008L29.9246 4.51099ZM22.1624 4.51191V4.64254L22.3197 4.65709L22.2775 4.54021L22.1624 4.51191ZM10.1427 4.51271L11.9518 6.32171C11.1053 7.19398 10.4048 8.19686 9.87716 9.29183C9.17065 10.7593 8.79289 12.3633 8.77024 13.9919H6.21607C6.24094 11.9062 6.72828 9.89594 7.62459 8.07399C8.27056 6.7613 9.12045 5.55926 10.1427 4.51259V4.51271ZM22.8602 5.18901C22.8447 5.19072 22.8336 5.1968 22.8336 5.20711C22.8336 5.25088 22.8912 5.25088 22.9196 5.33774C22.9479 5.42448 22.9333 5.56978 23.0622 5.599C23.1912 5.62822 23.2195 5.65653 23.2341 5.71497C23.2479 5.77249 23.4051 5.78716 23.4051 5.78716L23.5194 5.8456L23.8623 6.13516V6.0192C23.8623 6.0192 23.8477 5.90323 23.7764 5.90323C23.7051 5.90323 23.577 5.81638 23.6054 5.75885C23.6337 5.70041 23.3621 5.64278 23.3621 5.64278C23.3621 5.64278 23.1198 5.41073 23.2049 5.43915C23.2908 5.46837 23.2479 5.33774 23.2479 5.33774C23.2479 5.33774 23.0768 5.36696 23.0338 5.35229C22.9908 5.33774 23.0046 5.20711 23.0046 5.20711C23.0046 5.20711 22.9083 5.18305 22.8602 5.18901ZM15.0069 5.29386L14.946 5.35573L15.0319 5.44248L15.0929 5.38152L15.0069 5.29386ZM2.63921 5.89212C2.60311 5.88524 2.58248 5.91366 2.55407 5.92821C1.57354 7.1786 0.919469 8.5485 0.919469 10.227C0.919469 12.3016 2.11233 13.7488 2.26107 15.6971C2.56782 13.6646 4.27461 12.2208 5.15808 10.4323C5.50276 9.73449 5.7167 8.94818 5.81215 8.18067C5.68072 8.51712 5.47645 8.82032 5.214 9.0685C4.06583 10.1573 2.71312 11.23 2.45266 12.7708C2.41576 12.9909 2.39685 13.2177 2.33234 13.4309C2.28249 13.4524 2.2825 13.3957 2.26107 13.381L2.40373 11.4697C2.54295 9.60729 1.55979 7.53439 2.63921 5.89212ZM37.4307 5.89212C38.511 7.53439 37.5278 9.60729 37.6671 11.4697L37.8088 13.381C37.7882 13.3957 37.7882 13.4524 37.7375 13.4309C37.6739 13.2177 37.655 12.9909 37.618 12.7708C37.3577 11.23 36.004 10.1574 34.8568 9.0685C34.5943 8.82035 34.3901 8.5172 34.2586 8.18079C34.354 8.94818 34.568 9.7346 34.9126 10.4324C35.7961 12.2208 37.5021 13.6646 37.8088 15.6972C37.9583 13.7489 39.1512 12.3016 39.1512 10.227C39.1512 8.54861 38.4973 7.17871 37.5166 5.92821C37.4883 5.91366 37.4677 5.88524 37.4307 5.89212ZM19.8635 5.89384V8.44801C19.0841 8.47035 18.3177 8.6529 17.6119 8.98428C17.0621 9.24233 16.5567 9.58606 16.1148 10.0026L14.3074 8.19534C14.9315 7.59441 15.6465 7.09557 16.4259 6.71715C17.4864 6.20231 18.6525 5.9179 19.8635 5.89384ZM12.189 6.55994L13.8278 8.19797C13.1633 8.88898 12.6187 9.68599 12.2165 10.5562L12.2157 10.5554C11.7159 11.6335 11.4463 12.804 11.4241 13.9921H9.11057C9.13555 12.3944 9.50166 10.8544 10.1728 9.4518C10.6773 8.39736 11.3536 7.42187 12.189 6.55994ZM26.7818 7.65483C26.9811 7.77171 27.1298 8.04237 27.1049 8.09313C27.0765 8.15065 27.2759 8.1369 27.2759 8.1369C27.3051 7.87564 27.5474 7.9625 27.5621 8.04924C27.5767 8.1369 27.6188 8.32517 27.6188 8.32517L27.6901 8.45488L27.7907 8.55709L27.9479 8.54254L27.9909 8.62928L28.1765 8.6585C28.1765 8.6585 28.3339 8.83211 28.3476 8.87599C28.3622 8.91896 28.5762 8.90521 28.6337 8.91896C28.6905 8.93363 28.7764 8.9774 28.7901 9.04959C28.8048 9.12259 28.8908 9.23866 28.8908 9.23866C28.8908 9.23866 29.0617 9.28163 29.0764 9.34007C29.0909 9.3976 29.1623 9.52834 29.1623 9.52834L29.305 9.64431L29.3187 9.77494L29.476 9.78949L29.5189 9.96309L29.776 9.94854L29.9194 9.84713C29.9611 9.82488 30.0013 9.79988 30.0397 9.7723C30.0922 9.8901 30.1421 10.0095 30.1902 10.1298C30.678 11.3594 30.9375 12.6676 30.9559 13.9903H28.6441C28.6354 13.584 28.5984 13.1788 28.5332 12.7777C28.5478 12.7193 28.5556 12.6677 28.5342 12.6463C28.4912 12.6024 28.5771 12.3996 28.5771 12.3996C28.5771 12.3996 28.6339 12.2836 28.5771 12.1675C28.5195 12.0516 28.5909 11.9209 28.6339 11.8625L28.5195 11.8049L28.4053 11.7903L28.3184 11.8049C28.2916 11.7128 28.2635 11.6211 28.2342 11.5299V11.5291L28.3056 11.5437V11.4569L28.2015 11.4276C28.1818 11.3675 28.1595 11.3073 28.1379 11.2481L28.1199 10.949L28.0202 10.8768L28.0485 10.7607L27.9343 10.717L27.9918 10.5287L27.8913 10.3259H27.7469C27.6782 10.1884 27.606 10.0526 27.5304 9.91851C27.4702 9.95977 27.5346 10.0071 27.5346 10.0071L27.196 10.0216C27.2201 10.0638 27.2441 10.1068 27.2682 10.1498C27.2373 10.179 27.2201 10.2099 27.2201 10.2099L26.9915 10.2391V10.4712L26.8772 10.5141L26.891 10.6593L27.0482 10.6448C27.0482 10.6448 27.0482 10.8192 27.0912 10.7462C27.1341 10.674 27.4916 10.7607 27.4624 10.9353C27.4513 11.0065 27.8199 11.1956 27.777 11.4276C27.8071 11.432 27.8302 11.4414 27.8492 11.4526C27.918 11.6519 27.9791 11.8537 28.0323 12.0576L28.0056 12.1092C28.0056 12.1092 28.0279 12.1247 28.058 12.1547C28.1027 12.3335 28.1406 12.5139 28.1732 12.6953C28.162 12.8543 28.1268 13.0055 28.0477 13.0519C27.8767 13.1533 28.0623 13.0949 28.0623 13.0949L28.034 13.4146C28.077 13.559 28.1474 13.4868 28.1904 13.4146C28.2135 13.376 28.2368 13.3536 28.2617 13.3304C28.284 13.5487 28.2978 13.7687 28.3029 13.9904H26.5755C26.5841 13.9784 26.6047 13.9517 26.6047 13.9517L26.676 13.748L26.9193 13.6759L26.9476 13.4877L26.8196 13.473C26.8196 13.473 26.9622 13.2118 27.0335 13.2118C27.1049 13.2118 27.5767 13.2118 27.6188 13.1826C27.6618 13.1543 27.7477 12.9222 27.7477 12.8783C27.7477 12.8346 27.862 12.8199 27.905 12.8061C27.9479 12.7916 28.0476 12.6755 28.076 12.6171C28.1053 12.5586 28.0056 12.196 27.9479 12.2544C27.8912 12.3128 27.7623 12.3412 27.7623 12.3412L27.7193 12.5011L27.6481 12.5586C27.6481 12.5586 27.6626 12.6025 27.6481 12.7039C27.6334 12.8053 27.5054 12.8638 27.5054 12.8638L27.4478 12.936C27.4478 12.936 27.104 12.9549 27.0627 12.936C26.9338 12.8775 27.0198 12.7039 27.1057 12.7185C27.1908 12.7331 27.0912 12.4719 27.0912 12.4719L27.2054 12.4572C27.2054 12.4572 27.2192 12.196 27.2621 12.196C27.3051 12.196 27.2484 12.1092 27.1908 12.0662C27.1332 12.0224 27.0619 11.8772 27.0052 11.8917C26.9476 11.9064 26.719 11.8917 26.719 11.8917L26.676 11.9794L26.5188 12.0078C26.5188 12.0078 26.5325 12.1203 26.505 12.153C26.4191 12.2544 26.0908 12.4719 26.2335 12.1092L26.2764 12.0224V11.8917L26.0194 11.878C26.0194 11.878 25.8905 11.8342 25.8905 11.7758C25.8905 11.7181 25.8767 11.6459 25.8767 11.6459L25.576 11.3125L25.2194 11.2687L25.1909 11.1965L24.977 11.1673C24.947 11.1519 24.9156 11.1395 24.8833 11.1303C24.7824 10.9693 24.6734 10.8136 24.5567 10.6637C24.5542 10.6525 24.5498 10.6387 24.5481 10.631C24.5353 10.5795 24.3779 10.3585 24.292 10.3482C24.2593 10.3121 24.2284 10.276 24.1957 10.2409L25.9713 8.46439C26.0332 8.52031 26.0272 8.54346 26.1054 8.60018C26.1338 8.62081 26.1604 8.63112 26.1853 8.63375C26.2325 8.68532 26.2782 8.73768 26.3228 8.79017L26.291 8.83314C26.291 8.99986 26.3693 8.95174 26.4466 8.93799C26.4697 8.96629 26.493 8.99551 26.5162 9.02473C26.5247 9.12098 26.5247 9.25849 26.6769 9.23878H26.6812C26.8642 9.48517 27.0332 9.74168 27.1874 10.0071L27.1487 9.87646L27.0344 9.71741C27.1238 9.67192 27.2888 9.66161 27.3515 9.61864C27.2519 9.45819 27.147 9.30112 27.037 9.14768C27.0404 9.13989 27.0438 9.1313 27.0482 9.1227C27.1057 9.02129 27.0765 8.96377 26.9768 8.93455C26.8763 8.90533 26.8763 8.90533 26.8479 8.78925C26.8196 8.67329 26.7052 8.64407 26.7052 8.64407L26.6623 8.47047L26.5557 8.5375C26.4992 8.47177 26.4417 8.40701 26.383 8.34327L26.4346 8.17998C26.3778 8.16875 26.3486 8.13701 26.3332 8.10264L26.7818 7.65483ZM27.3515 9.61852C27.4132 9.71723 27.4728 9.81725 27.5303 9.91851C27.544 9.909 27.5621 9.89961 27.5913 9.89182C27.667 9.87027 27.6953 9.86695 27.7048 9.86775L27.6918 9.7173L27.5629 9.63055L27.5199 9.45615C27.5199 9.45615 27.3627 9.48537 27.3773 9.57211C27.3807 9.59182 27.3696 9.60557 27.3515 9.61852ZM27.7048 9.86775L27.7056 9.87726C27.7056 9.87726 27.7159 9.86947 27.7048 9.86775ZM27.1874 10.007L27.1917 10.0216H27.196C27.1926 10.0165 27.1899 10.0113 27.1874 10.007ZM17.6041 8.00111L17.5491 8.06815L17.635 8.14034L17.6892 8.0733L17.6041 8.00111ZM17.2767 8.06379L17.2912 8.22376H17.5053C17.5912 8.22376 17.4339 8.12235 17.4339 8.12235C17.4339 8.12235 17.2629 8.1361 17.2767 8.06391V8.06379ZM26.7774 8.08969L26.6924 8.09909L26.7061 8.22972L26.7921 8.22032L26.7774 8.08969ZM14.0659 8.43597L15.8732 10.2442C15.4969 10.644 15.18 11.0958 14.9322 11.5858C14.8686 11.585 14.8085 11.5978 14.7913 11.6459C14.7483 11.7611 14.5627 11.7327 14.5627 11.7327L14.5334 11.7903L14.3908 11.8195L14.3624 11.9063L14.1905 11.9355L14.6194 11.9209C14.7336 11.9063 14.5764 12.1675 14.505 12.153L14.3056 12.1675L14.2335 12.2397H14.0478L13.9628 12.3557L13.6912 12.3411C13.6912 12.3411 13.5339 12.4718 13.5486 12.5155C13.5623 12.5585 13.5193 12.6891 13.4764 12.6891C13.4334 12.6891 13.3483 12.8198 13.3767 12.8637C13.405 12.9066 13.2907 13.0518 13.2907 13.0518L13.2623 13.1971L13.1764 13.2263V13.6173L13.0054 13.7334V13.9078L12.9263 13.992H11.7644C11.7876 12.8421 12.0454 11.7327 12.5121 10.7159V10.715C12.899 9.87377 13.4242 9.10336 14.0659 8.43586V8.43597ZM27.3782 8.64223C27.3584 8.64395 27.3481 8.65862 27.3481 8.68784C27.3481 8.74628 27.4195 8.77458 27.391 8.84769C27.385 8.86193 27.3826 8.87744 27.384 8.89285C27.3854 8.90826 27.3905 8.92308 27.399 8.936C27.4076 8.94893 27.4191 8.95955 27.4327 8.96693C27.4463 8.97431 27.4615 8.97822 27.477 8.97832C27.5337 8.97832 27.5767 9.00662 27.6343 9.03584C27.691 9.06506 27.734 9.10803 27.777 9.16647L27.9196 9.1227C27.9196 9.1227 27.9342 8.97832 27.8767 9.02129C27.8199 9.06506 27.777 8.91988 27.7193 8.93443C27.6626 8.9491 27.6343 8.87691 27.5767 8.8038C27.5199 8.73161 27.5337 8.71706 27.4624 8.67317C27.4271 8.65174 27.3979 8.64051 27.3782 8.64223ZM19.8635 8.78925V11.1062C19.5601 11.1225 19.2688 11.1844 18.9955 11.2833H18.9912L18.9766 11.1234L19.0488 11.0804L18.9336 11.0366L18.8485 11.1526L18.8202 11.2833L18.6766 11.3116V11.3846H18.5769V11.4705C18.367 11.5841 18.1712 11.722 17.9934 11.8813L16.3545 10.2425C16.7716 9.84939 17.2489 9.5256 17.7683 9.28335H17.7691C18.4265 8.97852 19.139 8.81038 19.8634 8.78913L19.8635 8.78925ZM20.2046 8.79017C20.8698 8.81079 21.5144 8.95174 22.1134 9.20349C22.7048 9.4516 23.2468 9.80381 23.7137 10.2434L23.6209 10.3362C23.5744 10.2898 23.4188 10.2615 23.4188 10.2099C23.4188 10.1523 23.2762 10.0793 23.2908 10.1669C23.3046 10.2537 23.1911 10.2967 23.1619 10.2684C23.1335 10.2391 23.0476 10.3551 23.0476 10.3551C23.0476 10.3981 23.0193 10.4565 23.1043 10.4712C23.1912 10.4857 23.3476 10.4135 23.3621 10.5004C23.3673 10.5296 23.3716 10.5554 23.3785 10.5785L22.8121 11.144C22.7365 11.1483 22.6618 11.1381 22.6618 11.1381C22.6196 11.2687 22.4194 11.1243 22.4761 11.0367C22.5336 10.9498 22.5336 10.8923 22.5336 10.8923L22.4624 10.8776L22.3764 11.0367C22.1761 11.0367 22.1194 11.1526 22.1624 11.2248C22.2045 11.2979 22.1049 11.2111 22.0764 11.3125C22.0481 11.4139 22.0911 11.4139 22.177 11.4569C22.2621 11.5007 22.1332 11.5007 22.1908 11.5728C22.2269 11.6192 22.3094 11.6072 22.3386 11.6175L22.2303 11.7267C22.1314 11.7567 22.0189 11.7327 22.0189 11.7327C22.0163 11.7619 22 11.7825 21.9767 11.7972C21.7493 11.6093 21.4957 11.4555 21.2239 11.3408C21.2678 11.3081 21.3408 11.309 21.3761 11.2111C21.4336 11.0512 21.462 10.79 21.462 10.79C21.462 10.79 21.2334 10.7762 21.2187 10.8484C21.205 10.9206 21.0623 10.9644 21.0623 10.9644C21.0623 10.9644 20.9481 11.0073 20.9911 11.0658C21.034 11.1242 20.9051 11.1526 20.9051 11.1526C20.9051 11.1526 20.9128 11.1912 20.9094 11.2291C20.6801 11.1606 20.4436 11.1196 20.2046 11.107V8.79017ZM27.8053 9.28175L27.6343 9.2963C27.6773 9.35394 27.7632 9.39771 27.7632 9.45615C27.7632 9.51379 27.734 9.55756 27.8199 9.57223C27.9059 9.58598 27.9626 9.55756 27.9918 9.62975C28.0201 9.70194 28.0201 9.81802 28.0056 9.87646C27.9918 9.93398 28.0201 10.0208 28.0915 10.0208C28.1628 10.0208 28.1774 10.0354 28.1774 10.0793C28.1774 10.1231 28.2625 9.91943 28.2625 9.91943C28.1912 9.86179 28.1345 9.73116 28.1345 9.73116C28.1345 9.73116 28.0631 9.52834 28.0631 9.49912C28.0631 9.4699 27.9626 9.44068 27.9204 9.42693C27.8775 9.41226 27.8053 9.28163 27.8053 9.28163V9.28175ZM26.444 9.33927L26.3005 9.35394L26.3091 9.43988L26.4518 9.42613L26.444 9.33927ZM26.5343 9.4416V9.51379H26.6202V9.4416H26.5343ZM26.4191 9.58678C26.4191 9.58678 26.334 9.70286 26.1621 9.64442C26.1621 9.64442 26.1338 9.92023 26.0486 9.97787H25.8484C25.8484 9.97787 25.8914 10.0509 25.9335 10.0938C25.9764 10.1377 26.077 10.2245 25.9764 10.2829C25.8767 10.3405 25.9911 10.3259 25.9911 10.3259C25.9911 10.3259 25.9764 10.631 25.8484 10.5871C25.7195 10.5434 25.6766 10.747 25.6766 10.8046C25.6766 10.8621 26.1844 10.8845 26.1054 10.8046C26.0624 10.7607 26.1621 10.6593 26.1621 10.6593C26.1621 10.6593 26.5058 10.6885 26.5772 10.6885C26.6485 10.6885 26.7052 10.674 26.6623 10.6018C26.6193 10.5287 26.4913 10.5442 26.4913 10.5442C26.4913 10.5442 26.3194 10.5871 26.1621 10.5004C26.0057 10.4135 26.1913 10.3843 26.2197 10.3843C26.248 10.3843 26.3761 10.2829 26.3194 10.2099C26.2627 10.1377 26.3194 10.0071 26.3194 10.0646C26.3194 10.1231 26.4766 10.1523 26.5058 10.1085C26.5343 10.0655 26.5058 9.9349 26.4336 9.89101C26.3624 9.84724 26.5626 9.81882 26.5058 9.74583C26.4689 9.69757 26.4397 9.64393 26.4191 9.58678ZM26.7052 10.0216V10.1231H26.7912V10.0216H26.7052ZM26.8977 10.0724L26.8548 10.1601L26.9313 10.1987L26.9743 10.1119L26.8977 10.0724ZM28.2848 10.1901C28.2531 10.2004 28.314 10.3594 28.2771 10.3843C28.2342 10.4135 28.2049 10.4712 28.162 10.5149C28.119 10.5588 28.2479 10.6164 28.2479 10.6602C28.2479 10.7032 28.2771 10.9206 28.2771 10.9206C28.2771 10.9206 28.3768 10.9645 28.3906 11.0229C28.4051 11.0804 28.3915 11.1965 28.4335 11.2111C28.4765 11.2257 28.5625 11.2833 28.534 11.3409C28.5048 11.3993 28.5048 11.5153 28.5048 11.5153L28.5625 11.6459L28.6767 11.7181C28.6767 11.7181 28.7197 11.3701 28.6475 11.3564C28.5762 11.3417 28.6054 11.1381 28.6054 11.1381C28.6054 11.1381 28.6767 10.8631 28.5625 10.8631C28.4481 10.8631 28.534 10.7178 28.4628 10.6748C28.3914 10.631 28.4336 10.4282 28.4051 10.3698C28.3768 10.3121 28.3768 10.2399 28.3054 10.1962C28.296 10.1901 28.29 10.1893 28.2848 10.1901ZM24.8172 10.4695L24.6736 10.484L24.6822 10.5709L24.8257 10.5562L24.8172 10.4695ZM22.6497 10.4746C22.605 10.4746 22.5621 10.4857 22.5621 10.4857L22.3335 10.5149L22.3188 10.6164L22.4761 10.631C22.4761 10.631 22.5474 10.6895 22.5474 10.7324C22.5474 10.7762 22.648 10.8192 22.7047 10.8192C22.7622 10.8192 22.9187 10.7032 22.9187 10.7032C22.9187 10.7032 22.9909 10.5004 22.9333 10.5149C22.8757 10.5296 22.7622 10.6164 22.7477 10.5296C22.7408 10.4857 22.6944 10.4746 22.6497 10.4746ZM16.113 10.4832L17.5122 11.8823L17.3772 11.8772C17.3197 12.0078 17.177 11.8625 17.177 11.8625C17.1486 11.7758 16.9484 11.8625 16.9484 11.8625C16.9484 12.0224 16.6768 11.7903 16.6768 11.7903L16.1766 11.4276C15.8913 11.1673 15.4624 11.5007 15.4479 11.5729C15.4555 11.6829 15.3593 11.6855 15.2691 11.6658C15.4956 11.2352 15.7795 10.8374 16.113 10.4832ZM21.7344 10.5201L21.6502 10.539L21.6786 10.6696L21.7628 10.6507L21.7344 10.5201ZM22.2028 10.5442L21.8891 10.5579L21.8934 10.6448L22.2071 10.6301L22.2028 10.5442ZM19.5197 10.5726V10.6593H19.634V10.5725L19.5197 10.5726ZM20.2554 10.5871L20.2434 10.6731L20.3431 10.6877L20.3551 10.6009L20.2554 10.5871ZM20.4393 10.631L20.4273 10.717L20.5278 10.7315L20.5398 10.6456L20.4393 10.631ZM19.2834 10.6602L19.2705 10.7462L19.371 10.7599L19.383 10.674L19.2834 10.6602ZM21.6347 10.6628L21.5917 10.6774L21.6192 10.759L21.6614 10.7453L21.6347 10.6628ZM25.0947 10.6989L25.0517 10.8003L25.1308 10.8346L25.1738 10.7332L25.0947 10.6989ZM24.0334 10.7178C24.0334 10.7178 24.1193 10.7315 24.1915 10.7529C24.2593 10.8354 24.3247 10.9206 24.3874 11.0073L24.2053 10.979L24.0909 10.9644L23.876 10.9498C23.6621 11.0951 23.6191 11.2687 23.6191 11.2687C23.5212 11.4561 23.3071 11.2567 23.3132 11.1234L23.693 10.7427C23.7162 10.7453 23.7385 10.747 23.7618 10.747C23.8477 10.747 24.0334 10.7178 24.0334 10.7178ZM20.6335 10.747V10.8337H20.7478V10.747H20.6335ZM19.1871 10.7642L19.1665 10.8484L19.2808 10.8776L19.3023 10.7934L19.1871 10.7642ZM19.1468 10.8828L19.0625 10.8974L19.0771 10.9842L19.1613 10.9704L19.1468 10.8828ZM20.844 10.8836L20.759 10.887L20.7633 10.9893L20.8492 10.985L20.844 10.8836ZM25.3431 10.9206C25.2872 10.9206 25.227 10.9283 25.1909 10.9351C25.1197 10.9498 25.1342 11.0073 25.1909 11.0804L25.3628 11.0512C25.3628 11.0512 25.4909 10.9928 25.4625 10.9498C25.448 10.9275 25.3981 10.9206 25.3431 10.9206ZM24.3892 11.009C24.4433 11.0838 24.4957 11.1595 24.5456 11.2369C24.5292 11.2747 24.5232 11.3194 24.5335 11.37C24.5765 11.5875 24.6478 11.6751 24.5051 11.6751C24.3617 11.6751 24.3332 11.5591 24.3332 11.5591C24.3332 11.5591 24.2198 11.5153 24.2198 11.5728C24.2198 11.6313 24.1768 11.7473 24.2198 11.8049C24.262 11.8633 24.1623 11.9502 24.1193 11.9063C24.0763 11.8633 23.962 11.7327 23.9904 11.6897C24.0196 11.6459 23.791 11.37 24.0196 11.327C24.2482 11.2833 24.005 11.1526 24.0909 11.1242L24.2053 11.0658H24.3195L24.3892 11.009ZM0.544767 11.0641C0.316164 11.5461 0.223347 12.0893 0.103029 12.6136C-0.152159 13.9706 0.103028 15.411 0.471772 16.6579C0.932416 18.2178 2.46045 19.3341 3.23472 20.7634L3.34048 20.8485C3.22784 20.0724 3.17032 19.237 3.38941 18.4962C3.72378 17.3112 4.14317 16.1596 4.36399 14.9306C4.53507 13.9767 4.73181 12.9058 4.61929 11.9811C4.49118 12.4796 4.35975 12.9719 4.08645 13.3957C3.04657 15.0053 1.97918 16.8935 2.70704 18.9363C2.69077 18.9586 2.66671 18.987 2.63921 18.9723C2.34701 18.2969 2.28169 17.5285 2.09171 16.8049C1.58809 14.8859 0.112541 13.2831 0.544767 11.0641ZM39.5259 11.0641C39.9582 13.2831 38.4826 14.8858 37.9782 16.8049C37.7882 17.5285 37.7238 18.2969 37.4307 18.9723C37.4041 18.987 37.38 18.9586 37.3628 18.9363C38.0916 16.8935 37.0242 15.0053 35.9843 13.3957C35.711 12.9719 35.5787 12.4796 35.4515 11.9811C35.3389 12.9058 35.5357 13.9767 35.7067 14.9306C35.9267 16.1596 36.347 17.3112 36.6813 18.4962C36.9005 19.237 36.8428 20.0724 36.7303 20.8484L36.836 20.7634C37.6103 19.3341 39.1375 18.2178 39.599 16.6579C39.9676 15.411 40.2229 13.9706 39.9676 12.6135C39.8465 12.0893 39.7545 11.5461 39.5259 11.0641ZM20.0062 11.4388L20.0337 11.7869L19.8763 11.7327H19.7767L19.7337 11.6459L19.6477 11.6313V11.9502L19.7337 12.0224L19.8051 12.0945L19.9477 12.1091L19.977 12.2835L20.3336 12.2982L20.3765 12.3704L20.5906 12.385L21.0048 12.8052L20.9764 12.9358L20.9051 12.9788C20.9334 13.081 20.7195 13.0227 20.7195 13.0227V13.1094L20.8192 13.124L20.9197 13.1824L21.0623 12.9358C21.2197 12.8344 21.2909 12.9788 21.3047 13.0665C21.3194 13.1532 21.2334 13.1387 21.2334 13.1387V13.3415L21.3194 13.3707C21.462 13.5443 21.2617 13.6465 21.2617 13.6465L21.2187 13.7909C21.1767 13.9215 21.0194 13.8923 21.0194 13.8923L20.9626 13.98L20.7908 14.0229L21.1303 14.0668C21.162 13.9508 21.248 13.9215 21.2901 13.98C21.3331 14.0376 21.3331 14.139 21.3331 14.139L21.419 14.1536L21.4053 14.3126L21.4912 14.3418V14.8059L21.5909 14.9219C21.7619 14.8497 21.7619 14.9658 21.6769 15.0233C21.5909 15.0817 21.6476 15.3422 21.6476 15.3422L21.5763 15.4152V15.5313L21.4903 15.5888V15.7486C21.3477 15.6756 21.1758 15.7049 21.1328 15.7486C21.0048 15.661 20.7332 15.6902 20.7332 15.7633C20.8192 15.8793 20.6335 15.9077 20.6335 15.9077L20.5329 16.0237C20.6051 16.169 20.4625 16.1835 20.4625 16.1835V16.4594L20.2906 16.6184L20.3001 16.8737C20.2124 16.8823 20.1239 16.8874 20.0337 16.8874C19.3651 16.8874 18.7333 16.6476 18.2366 16.2093C18.2472 16.203 18.2561 16.1941 18.2624 16.1835C18.3338 16.0675 18.448 16.0529 18.448 16.0529L18.491 15.9515L18.8769 15.9661C18.9052 15.8063 19.0908 15.8647 19.0908 15.9369C19.0908 16.0099 19.2335 15.9515 19.2335 15.9515L19.3332 15.7925H19.4905L19.5051 15.618L19.5765 15.575V15.3138C19.8051 15.2416 19.7767 15.0233 19.7767 15.0233L19.8334 14.9511L19.8051 14.8497C19.6907 14.8059 19.7474 14.7045 19.8196 14.7337C19.891 14.763 19.7191 14.6031 19.7191 14.6031C19.634 14.6761 19.5627 14.5162 19.5627 14.5162H19.3479V14.3134L19.3194 14.1244L19.1055 14.0229L18.9482 14.1682L18.919 14.3711V14.5017L18.7763 14.5309L18.748 14.9219L18.6336 14.9658L18.6483 15.111L18.491 15.1539L18.3338 15.1978L18.3053 15.386L18.1911 15.4591L18.1335 15.6327L18.0639 16.0435C17.8646 15.836 17.6995 15.5981 17.5748 15.3388C17.6015 15.2364 17.605 15.1394 17.605 15.1394C17.4769 15.0809 17.5483 14.8781 17.6909 15.0525C17.8336 15.2261 17.605 14.7045 17.605 14.7045L17.4906 14.6031L17.3428 14.5894C17.3209 14.4483 17.3097 14.3058 17.3093 14.1631C17.3093 14.1029 17.3119 14.0436 17.3162 13.9843C17.3566 13.9431 17.4056 13.9645 17.4056 13.9645L17.4906 14.0376L17.6195 14.139L17.6342 14.2258L17.5483 14.2687L17.5336 14.3856L17.5766 14.5447H17.6909C17.7339 14.3126 18.0338 14.3126 18.1197 14.4578L18.2057 14.255C18.0055 14.1536 18.2022 13.9937 18.2589 14.0659C18.3157 14.139 18.448 13.8778 18.448 13.8778C18.448 13.8778 18.5486 14.0084 18.448 13.8339C18.3483 13.6603 18.5194 13.5735 18.5194 13.5735C18.491 13.399 18.705 13.4282 18.705 13.4282L18.7196 13.1962L18.5194 13.1816C18.4772 13.3845 18.3053 13.2109 18.3913 13.167C18.4772 13.124 18.5624 13.0363 18.5624 13.0363V12.892L18.6483 12.8627L18.6621 12.7176H18.8769L19.0625 12.6307L19.1055 12.5585L19.3057 12.544L19.591 12.2827L19.5627 12.1667C19.3916 12.1667 19.5627 12.0361 19.5627 12.0361L19.591 11.8195H19.4338L19.4063 11.5119C19.6029 11.4654 19.8041 11.4408 20.0062 11.4388ZM28.7068 12.2802L28.6922 12.3961L28.7773 12.4074L28.7919 12.2913L28.7068 12.2802ZM28.6536 12.6711L28.6106 12.758L28.687 12.7966L28.73 12.7099L28.6536 12.6711ZM13.8278 13.247C13.9628 13.2392 14.0625 13.3123 14.0625 13.3123L14.2627 13.2985C14.3117 13.3312 14.3444 13.3699 14.3658 13.4094C14.3484 13.5447 14.3358 13.6805 14.328 13.8167C14.3074 13.8545 14.2911 13.8778 14.2911 13.8778C14.2739 13.9035 14.2653 13.9457 14.2602 13.9921H13.717L13.7195 13.9792L13.5623 13.9654C13.3904 13.8632 13.4764 13.4867 13.4764 13.4867C13.595 13.3088 13.7222 13.2529 13.8278 13.247ZM18.791 13.5151L18.7625 13.5881H18.6913L18.6766 13.7042H18.7625L18.7772 13.7909L18.7196 13.8485L18.6913 13.9215L18.5769 13.9508L18.3191 14.1975L18.3053 14.3126L18.2341 14.4148L18.1481 14.6323L17.8481 14.6461L17.7906 14.9073L17.8336 15.1247L18.0905 15.2261L18.1197 15.0817L18.2048 15.038L18.2194 14.8927L18.2761 14.7913L18.363 14.6898L18.3905 14.5739L18.5339 14.487L18.705 14.4578L18.7772 14.3711L18.8055 14.1975L18.8158 14.0668L18.8769 13.9792L19.0479 13.907V13.632H18.9629L18.9482 13.5296L18.791 13.5151ZM27.7554 13.6036L27.7409 13.6887L27.8981 13.7179L27.9136 13.632L27.7554 13.6036ZM27.3979 13.729L27.3559 13.7531L27.2493 13.8132L27.1565 13.7548L27.1118 13.8279L27.226 13.9001L27.2476 13.9139L27.269 13.9018L27.3549 13.8528L27.3662 13.8795L27.4452 13.8476L27.4168 13.7746L27.3979 13.729ZM26.2979 14.3315H28.302C28.2805 15.426 28.0403 16.5051 27.5956 17.5054C27.208 18.3787 26.6724 19.1786 26.0125 19.8696C25.985 19.5783 25.9189 19.2577 25.9189 19.2577L25.8046 19.2001L25.833 18.8512H25.6766L25.4187 19.1855L25.3903 19.2774L25.2442 19.1305L25.319 19.0549L25.3044 18.8803L25.405 18.7936V18.6492L25.4909 18.62L25.5047 18.3011L25.576 18.2865V17.5904L25.362 17.3876C25.3474 17.4598 25.1187 17.4598 25.1187 17.4598C25.1187 17.4598 25.062 17.5612 25.0191 17.5612C24.9761 17.5612 25.0767 17.6918 25.0475 17.7786C25.0191 17.8654 24.9048 17.8654 24.9048 17.8654L24.69 17.9239L24.6332 17.9961H24.4046L24.3857 17.8697C24.4089 17.8422 24.4312 17.8139 24.4536 17.7854L24.6332 17.7348L24.7759 17.6626L24.8472 17.5182C24.8618 17.3729 25.0337 17.3876 25.0337 17.3876C25.0337 17.3876 25.362 17.1117 25.3758 16.982C25.3903 16.8513 25.5047 16.4886 25.7049 16.4886H26.0761C26.2188 16.4302 26.1758 16.2419 26.1758 16.2419L26.3615 16.2127L26.3907 16.3141C26.3907 16.3141 26.6477 16.3434 26.676 16.3004C26.7052 16.2566 26.7619 16.1552 26.8333 16.1982C26.9046 16.2419 27.1332 16.0968 27.1332 16.0968C27.1479 15.9953 27.5045 16.0391 27.5045 16.0391L27.5474 15.9085C27.5474 15.9085 27.3051 15.575 27.2621 15.575C27.2192 15.575 26.9905 15.3722 26.9622 15.4444C26.7336 15.3869 26.7474 15.0672 26.7474 15.0672L26.6623 14.8644C26.6623 14.7483 26.4483 14.5017 26.4044 14.5309C26.315 14.4647 26.2927 14.3934 26.2979 14.3315ZM28.6432 14.3315H30.9559C30.9318 15.9197 30.5649 17.4254 29.9297 18.7808H29.9306C29.4152 19.8811 28.7202 20.8881 27.8741 21.7603L27.8113 21.6967L27.7916 21.3306L27.7194 21.2584L27.7057 20.8957C27.7624 20.7066 27.4341 20.4316 27.4057 20.4901C27.3774 20.5476 27.1918 20.5038 27.1918 20.5623C27.1918 20.6198 27.0774 20.9103 27.1341 21.0117C27.1376 21.0168 27.1385 21.022 27.141 21.0271L26.243 20.1282C26.9332 19.4114 27.4938 18.5804 27.8999 17.672V17.6712C28.3695 16.6192 28.6223 15.4834 28.6432 14.3315ZM31.2971 14.3315H33.8513C33.8255 16.4216 33.333 18.4009 32.4745 20.1704H32.4753C31.8244 21.5118 30.9616 22.7396 29.9202 23.8066L28.1189 22.0053C29.0016 21.0959 29.7132 20.0638 30.2374 18.9483H30.2365C30.9085 17.5199 31.2729 15.9541 31.297 14.3315H31.2971ZM11.7644 14.3332H12.7665L12.7768 14.415L12.5628 14.6469L12.5912 14.8789L12.4623 14.9219L12.4338 15.0242L12.3771 15.3284L12.5198 15.343C12.5912 15.3138 12.5765 15.5313 12.5198 15.5605C12.4623 15.5888 12.3049 15.6472 12.3909 15.7049C12.4768 15.7633 12.1623 15.7486 12.1623 15.6619C12.1623 15.575 11.9913 15.502 11.9483 15.5313C11.9234 15.5485 11.8899 15.502 11.8658 15.4599C11.8064 15.0871 11.7725 14.7107 11.7644 14.3332ZM13.2409 14.3332H13.3122C13.3492 14.341 13.3767 14.3565 13.3767 14.3565L13.5769 14.3711L13.5967 14.3332H14.2764L14.3341 14.7045L14.1475 14.8634C13.9911 14.9511 13.9911 15.1539 14.1622 15.1978C14.2764 15.2116 14.2335 15.4874 14.0625 15.2992C13.8055 15.2992 14.2052 15.5305 14.0908 15.4728C14.3486 15.6035 14.2911 15.3567 14.2911 15.3567L14.42 15.2528C14.4746 15.5363 14.5504 15.8152 14.6469 16.0872C14.9121 16.8302 15.3292 17.5099 15.8715 18.0828L14.0659 19.8893C13.9492 19.7676 13.8363 19.6424 13.7273 19.5138C13.7487 19.4236 13.8055 19.3299 13.8055 19.3299C13.9911 19.2139 13.7625 19.0256 13.7625 19.0256C13.7909 18.8512 13.6628 18.6484 13.6628 18.6484C13.4059 18.4739 13.4764 18.1404 13.4764 18.1404V17.9084C13.2623 17.7056 13.5623 17.6764 13.5623 17.6764C13.662 17.5028 13.4909 17.3721 13.4909 17.3721L13.4764 17.184L13.2478 17.1548L13.2194 16.4732L12.7054 15.7341C12.6049 15.7049 12.6762 15.5305 12.6762 15.5305C12.8051 15.4583 12.6479 15.2847 12.6479 15.2847L12.6332 14.9658L12.9332 14.9366L13.0054 14.8206H13.1481L13.1334 14.4433C13.1601 14.3737 13.2004 14.3436 13.2409 14.3332ZM16.8143 14.3332H16.9767C16.9819 14.4347 16.9931 14.5352 17.0085 14.6348L16.92 14.6606L16.8908 14.6031L16.8478 14.762H16.5909L16.5771 14.5884L16.7343 14.5447L16.7911 14.4579L16.8143 14.3332ZM21.0478 14.5309C21.0245 14.5275 20.9979 14.5456 20.9764 14.6031V14.7914C20.9764 14.7914 21.1767 15.1102 21.248 15.1539C21.3194 15.1978 21.4345 15.1016 21.3623 15.0525C21.1483 14.9073 21.1629 14.7191 21.1053 14.5884C21.0933 14.5601 21.0718 14.5352 21.0478 14.5309ZM13.5769 14.6607L13.5915 14.7622H13.6628C13.7762 14.9658 13.6766 15.4582 13.6766 15.4582C13.6766 15.4582 13.5056 15.4728 13.4764 15.386C13.448 15.2992 13.3767 15.5742 13.4342 15.618C13.4909 15.661 13.6912 15.618 13.705 15.7779C13.7195 15.9369 13.8339 15.6756 13.8339 15.6756V14.6898L13.5769 14.6607ZM20.4479 14.952L20.1909 15.1403C20.3198 15.1548 20.3336 15.2855 20.3482 15.3431C20.3792 15.4694 20.3765 15.1394 20.4332 15.1548C20.4909 15.1686 20.4479 14.952 20.4479 14.952ZM14.7336 15.0698C14.8549 15.1119 14.9915 15.3087 14.9915 15.3422C14.9915 15.3861 15.5621 15.3569 15.5621 15.3569C15.7194 15.4582 15.777 15.7194 15.777 15.7194C15.9343 15.5158 16.2626 15.7049 16.0193 15.8208C16.2479 15.9652 16.2479 16.0958 16.2479 16.0958C16.4335 16.0383 16.4345 16.1835 16.4345 16.2265C16.4345 16.2704 16.4912 16.0091 16.4912 16.0091C16.2771 15.8492 16.7765 15.7917 16.6338 16.0813L16.5479 16.2119L16.6914 16.3279L16.7051 16.6613C17.0197 16.633 16.9337 16.2411 16.9337 16.2411L17.0764 16.2119C17.0764 16.0813 17.177 16.1543 17.177 16.1543C17.1073 15.8114 17.244 15.6671 17.3342 15.6094C17.4488 15.8237 17.5888 16.0233 17.7511 16.2041L16.113 17.8423C15.6142 17.3128 15.2283 16.6874 14.9786 16.0041C14.8693 15.7006 14.7873 15.3879 14.7336 15.0698ZM27.6738 15.4075C27.557 15.3997 27.4057 15.4875 27.4487 15.5459C27.5346 15.6619 27.6773 15.6035 27.734 15.6181C27.7915 15.6327 27.8482 15.6619 27.7915 15.4883C27.7735 15.4333 27.7271 15.4109 27.6738 15.4075ZM14.0908 15.6113C14.0828 15.6112 14.0748 15.6128 14.0674 15.6159C14.06 15.619 14.0533 15.6235 14.0476 15.6293C14.0419 15.635 14.0374 15.6419 14.0344 15.6494C14.0313 15.6569 14.0298 15.665 14.0298 15.6731C14.03 15.6894 14.0365 15.705 14.0479 15.7164C14.0593 15.7278 14.0748 15.7342 14.0908 15.7341C14.1067 15.734 14.1219 15.7275 14.1332 15.7161C14.1444 15.7047 14.1508 15.6893 14.151 15.6731C14.151 15.6568 14.1448 15.6412 14.1335 15.6296C14.1222 15.618 14.1069 15.6114 14.0908 15.6113ZM13.9336 15.8063L13.7187 15.9515L13.5761 15.8647V16.2127L13.8055 16.517L13.8906 16.3133L13.9198 16.1835L13.8192 16.1397L13.833 15.9222L13.9198 15.9077L13.9336 15.8063ZM19.219 16.169L19.0908 16.1835L19.1055 16.3863L19.1905 16.4585L19.3479 16.5024C19.3479 16.5024 19.5618 16.444 19.5765 16.2704L19.2482 16.2557L19.219 16.169ZM21.0203 16.2798C21.1397 16.2798 21.1148 16.5694 21.1079 16.6665C21.0228 16.7026 20.9369 16.7352 20.8475 16.7627V16.4448L20.9901 16.2849C20.9999 16.2817 21.01 16.2799 21.0203 16.2798ZM17.9942 16.4465C18.4881 16.8911 19.1144 17.161 19.7767 17.2148L19.787 17.1332C19.8085 17.0249 20.0224 17.0137 20.0337 17.1117C20.044 17.2096 20.0337 17.275 20.0337 17.275L20.0981 17.2965C20.0981 17.2965 20.087 17.3618 20.0337 17.3618C19.9795 17.3618 20.0337 17.3945 20.001 17.4271L20.0337 17.4812C20.0551 17.4598 20.0766 17.5465 20.1196 17.5354C20.1617 17.5251 20.184 17.6118 20.141 17.6118C20.0981 17.6118 20.0981 17.666 20.0981 17.6884C20.0981 17.7099 20.0981 17.764 20.0654 17.7967C20.0337 17.8293 20.001 17.8079 19.958 17.7854C19.9237 17.7683 19.8996 17.7657 19.8643 17.7648V17.9092C19.8446 17.904 19.8265 17.9015 19.8051 17.8946V17.9961L19.6907 18.0106L19.7904 18.1258L19.8643 18.1353V18.3725L19.8618 18.387C19.8618 18.5753 19.3908 18.4447 19.3479 18.4017L19.3332 18.663L19.2473 18.6767L19.2619 18.8511L19.2473 19.0978L19.4046 19.0686V19.17L19.7904 19.1846L19.8643 19.1055V19.3736L19.8618 19.3874L19.604 19.4166L19.4905 19.475L19.4476 19.3874H19.3332L19.2627 19.4863C18.9262 19.4375 18.5951 19.3572 18.2736 19.2464V19.2456C17.5662 19.0016 16.9148 18.6097 16.3562 18.0854L17.9942 16.4465ZM19.8643 17.7648V17.2217C19.8351 17.22 19.8059 17.2174 19.7767 17.2148V17.22C19.7767 17.22 19.7234 17.3506 19.787 17.3729C19.8515 17.3945 19.8299 17.4048 19.8618 17.4374L19.8299 17.5139C19.7767 17.4426 19.744 17.5681 19.7767 17.6007C19.8085 17.6334 19.701 17.6118 19.701 17.6557C19.701 17.6987 19.6693 17.7201 19.701 17.7425C19.7337 17.764 19.6907 17.7751 19.6477 17.8078C19.6048 17.8404 19.8299 17.8508 19.8299 17.8508C19.8299 17.8508 19.787 17.764 19.8403 17.764C19.8506 17.764 19.8566 17.7648 19.8643 17.7648ZM4.37602 16.5875C4.56853 17.8509 4.06755 18.9664 3.95147 20.1678C3.85613 21.1544 4.02882 22.1145 4.41211 22.9437C4.52556 23.1895 4.73181 23.4122 4.78945 23.6622C4.41899 23.3288 4.15692 22.9025 3.90162 22.4892C2.70796 20.5563 0.203638 19.2998 0.0334747 16.9477C-0.0524664 17.9935 0.0377145 19.1031 0.386635 20.033C0.871343 21.3229 1.80294 22.3147 2.8764 23.1603C3.98676 24.0352 5.31197 24.7185 6.32264 25.4876C6.12325 24.984 5.80012 24.5191 5.66857 23.988C5.07306 21.5859 5.40559 18.8092 4.37602 16.5875ZM35.6939 16.5875C34.6651 18.8092 34.9968 21.5859 34.4021 23.988C34.2707 24.5191 33.9475 24.984 33.7481 25.4876C34.7588 24.7185 36.084 24.0352 37.1944 23.1603C38.2677 22.3147 39.1993 21.3229 39.6832 20.033C40.0322 19.1031 40.1233 17.9935 40.0373 16.9477C39.8672 19.2998 37.3628 20.5563 36.1691 22.4892C35.9139 22.9025 35.6517 23.3288 35.2813 23.6622C35.3389 23.4122 35.5451 23.1895 35.6586 22.9437C36.0411 22.1145 36.2147 21.1544 36.1192 20.1678C36.0023 18.9664 35.5022 17.8509 35.6939 16.5875ZM23.2427 16.6374C23.2805 16.6382 23.3071 16.6563 23.2908 16.7053C23.2479 16.836 23.2908 16.8944 23.2908 16.8944C23.4765 16.7199 23.6337 16.9082 23.6191 16.9519C23.6045 16.9958 23.7196 17.0388 23.7901 16.9958C23.8623 16.9519 23.9474 17.1255 23.919 17.2124C23.8907 17.3 23.6337 17.2854 23.6191 17.1986C23.6045 17.111 23.5615 17.1402 23.5332 17.184C23.5091 17.221 23.4129 17.2468 23.3407 17.2269L23.2796 17.166C23.2857 17.1505 23.2994 17.135 23.2762 17.111C23.2555 17.0904 23.2307 17.0894 23.2032 17.0894L23.0726 16.9597C23.0743 16.8703 23.0991 16.7569 23.0905 16.7199C23.0819 16.6838 23.1791 16.6357 23.2427 16.6374ZM13.9481 16.6907L13.8484 16.7053L13.833 16.8213L13.9481 16.836V16.6907ZM31.8042 16.8171C31.7448 16.8205 31.6743 16.8532 31.6348 16.8797L31.6821 16.9519C31.7371 16.915 31.8076 16.8978 31.8239 16.9055C31.8222 16.9047 31.8204 16.9021 31.8196 16.9004L31.9047 16.8866C31.9027 16.8733 31.8973 16.8606 31.889 16.8499C31.8808 16.8393 31.8699 16.8309 31.8574 16.8257C31.8406 16.8187 31.8224 16.8158 31.8042 16.8171ZM13.9877 16.9632C13.9796 16.9632 13.9717 16.9649 13.9643 16.9681C13.957 16.9712 13.9503 16.9758 13.9447 16.9816C13.9391 16.9873 13.9347 16.9941 13.9317 17.0016C13.9288 17.009 13.9274 17.017 13.9275 17.025C13.9275 17.0585 13.9542 17.086 13.9877 17.086C14.0212 17.086 14.0478 17.0585 14.0478 17.025C14.048 17.017 14.0465 17.009 14.0436 17.0016C14.0406 16.9941 14.0362 16.9873 14.0306 16.9816C14.0251 16.9758 14.0184 16.9712 14.011 16.9681C14.0036 16.9649 13.9957 16.9632 13.9877 16.9632ZM21.1122 17.0327C21.1148 17.0705 21.1337 17.111 21.1337 17.111L21.205 17.1402L21.0761 17.2416L20.9618 17.3722L20.8192 17.3293L20.6481 17.3146L20.5906 17.2132L20.4909 17.1986L20.4762 17.4015L20.4049 17.4882L20.2339 17.6627C20.4135 17.6627 20.2932 17.7598 20.2056 17.8019V17.2218C20.3886 17.2116 20.5704 17.1851 20.7487 17.1427C20.7659 17.1582 20.7762 17.1694 20.7762 17.1694H20.9051L20.9128 17.0989C20.9799 17.0789 21.0464 17.0569 21.1122 17.0327ZM14.0874 17.2674C14.0793 17.2673 14.0714 17.2689 14.064 17.272C14.0566 17.2751 14.0498 17.2797 14.0441 17.2854C14.0385 17.2912 14.034 17.298 14.0309 17.3055C14.0279 17.3131 14.0264 17.3211 14.0264 17.3293C14.0264 17.3374 14.0279 17.3455 14.0309 17.353C14.034 17.3605 14.0385 17.3674 14.0441 17.3731C14.0498 17.3789 14.0566 17.3834 14.064 17.3865C14.0714 17.3896 14.0793 17.3912 14.0874 17.3911C14.1034 17.391 14.1188 17.3844 14.13 17.3728C14.1413 17.3612 14.1476 17.3456 14.1475 17.3293C14.1476 17.313 14.1413 17.2973 14.13 17.2857C14.1188 17.2741 14.1034 17.2675 14.0874 17.2674ZM19.4879 17.3129C19.4157 17.3094 19.3547 17.5329 19.3263 17.5905C19.3263 17.5905 19.359 17.7099 19.4226 17.6996C19.4871 17.6885 19.5301 17.6558 19.5833 17.6446C19.6366 17.6343 19.659 17.5466 19.6796 17.4599C19.701 17.373 19.6581 17.3293 19.6581 17.3293C19.6581 17.3293 19.6048 17.4169 19.5197 17.3293C19.5113 17.3203 19.5001 17.3146 19.4879 17.3129ZM13.8192 17.4307L13.6981 17.4444V17.5466L13.8192 17.5321V17.4307ZM22.4194 17.4307H22.5191L22.5336 17.5029L22.9702 17.5441L22.9908 17.5466C23.1619 17.6481 23.076 17.7787 23.0193 17.8071C22.9616 17.8363 22.8619 17.8363 22.8619 17.8363L22.8336 17.8948L22.4624 17.9231L22.4331 18.0684C22.2475 18.0391 22.1761 18.242 22.2191 18.3434C22.2621 18.4448 22.2191 18.5324 22.2191 18.5324L22.3764 18.6046L22.5758 18.547C22.605 18.4018 22.733 18.3726 22.8474 18.2857C22.9616 18.199 23.1482 18.4448 23.0905 18.5607C23.0849 18.5727 23.0795 18.5847 23.0743 18.5968C22.5056 18.9887 21.866 19.266 21.1912 19.4133L21.1758 19.4022L21.0186 19.3583L21.0048 19.1417C20.9764 18.9965 20.7048 18.9965 20.7186 19.0979C20.7332 19.1993 20.209 19.1417 20.2056 19.1417V18.7421L20.3482 18.59L20.6765 18.5178C20.7048 18.3726 20.8475 18.547 20.8475 18.547C20.9901 18.5324 21.0194 18.6339 21.0194 18.6339L21.205 18.6631C21.3623 18.7068 21.2669 18.7215 21.2764 18.779C21.2901 18.8659 21.3623 18.8367 21.3623 18.8367L21.3906 18.6484L21.4766 18.6631L21.3906 18.5617L21.2334 18.4886L21.0615 18.4164C20.9472 18.2565 21.0907 18.2857 21.205 18.3004H21.3906C21.3906 18.3004 21.6055 18.59 21.6055 18.6631C21.6055 18.7353 21.7052 18.7498 21.7052 18.7498L21.8333 18.7353L21.8763 18.8367H22.0052L22.0481 18.9234H22.305L22.3197 18.7937L22.0764 18.7498L22.0619 18.6046L21.8908 18.5607C21.8333 18.315 21.9338 18.2428 22.0052 18.3588L22.0902 18.3726L22.0619 18.1551L22.1616 18.1259L22.1332 17.8217L22.0481 17.7924V17.691L22.4047 17.7057C22.3764 17.5174 22.4194 17.4307 22.4194 17.4307ZM32.7581 18.0924L32.6816 18.131C32.6911 18.1509 32.6936 18.1706 32.6953 18.1904C32.697 18.2162 32.6997 18.2454 32.7245 18.2634C32.7392 18.2754 32.7589 18.2789 32.7822 18.2746L32.7658 18.1904C32.7727 18.1912 32.7813 18.1973 32.783 18.2032C32.7821 18.2007 32.7813 18.1904 32.7804 18.1826C32.7791 18.1514 32.7715 18.1207 32.7581 18.0924ZM32.6756 18.2531L32.5922 18.2746C32.6137 18.3631 32.6455 18.4499 32.6472 18.4534L32.728 18.4224C32.7271 18.4215 32.6953 18.3365 32.6756 18.2531ZM25.9696 18.3373V18.6132H26.0693V18.3373H25.9696ZM22.8826 18.4087L22.7683 18.4809L22.8138 18.5548L22.9282 18.4817L22.8826 18.4087ZM32.1951 18.6081C32.1883 18.6768 32.2046 18.761 32.2717 18.7748L32.2889 18.6897H32.2906C32.2837 18.6837 32.2768 18.6493 32.2803 18.6167L32.1951 18.6081ZM20.7478 18.7645V18.9389V18.7645ZM32.147 18.7704C32.1212 18.7722 32.0868 18.7997 32.0559 18.8186C31.97 18.8728 32.0026 19.0911 32.0559 19.0361C32.1092 18.9819 32.1737 19.0361 32.1848 18.8728C32.19 18.7911 32.1728 18.7679 32.147 18.7704ZM23.2659 18.8822L23.6045 19.055C23.6474 19.1125 23.8331 19.0979 23.8331 19.0979L23.8907 19.1709C23.8907 19.1709 24.005 19.1564 24.0763 19.2431C24.1476 19.33 24.5189 19.2578 24.5189 19.2578L24.6195 19.3445L24.7759 19.403L25.0406 19.4116L25.2056 19.5766C24.9469 19.6944 24.4235 19.6531 24.39 19.6195C24.347 19.5766 24.0479 19.4459 24.0479 19.4459C24.0479 19.4459 23.8193 19.2578 23.7764 19.3153C23.7334 19.3737 23.5332 19.2431 23.5332 19.287C23.5332 19.33 23.3476 19.1856 23.3476 19.1856L23.0622 19.0833L23.2762 19.0403L23.2418 18.8986C23.2496 18.8934 23.2582 18.8882 23.2659 18.8822ZM7.74754 19.7356V19.8808H7.86179V20.0691H7.94773L7.93318 19.8525L7.81882 19.8086V19.7356H7.74754ZM28.6166 19.8086L28.6054 19.9392L28.7447 19.9488L28.7558 19.8302L28.6166 19.8086ZM28.5014 20.1155L28.4739 20.198C28.4808 20.2005 28.4911 20.2057 28.5006 20.2117L28.5186 20.2874C28.5117 20.2968 28.5048 20.3063 28.4997 20.3122L28.5625 20.3716C28.608 20.32 28.6251 20.271 28.6131 20.2228C28.5942 20.1489 28.5109 20.1189 28.5014 20.1155ZM26.0031 20.3733L26.6322 21.0032C26.603 21.109 26.5041 21.1708 26.4483 21.1279C26.3907 21.084 26.5196 21.2001 26.548 21.2585C26.5772 21.316 26.6623 21.316 26.6915 21.2585C26.7104 21.219 26.7104 21.1485 26.7173 21.0883L27.0077 21.3788C26.9699 21.4535 26.9321 21.5292 26.9485 21.5773L27.0774 21.6349L27.0912 21.8815C27.1874 21.9795 27.4031 21.9752 27.5759 21.9468L27.6343 22.0053C27.105 22.5172 26.5254 22.9745 25.9043 23.37V23.2308C26.1621 23.0417 26.1758 22.7083 25.9335 22.679C25.7488 22.6576 25.8338 22.4617 26.0049 22.4324L26.1045 22.3895V22.2588L26.4328 21.9546V21.7226L25.7195 21.1279C25.5734 21.0746 25.5639 20.8966 25.6155 20.7222C25.7482 20.6098 25.8775 20.4935 26.0031 20.3733ZM8.46166 20.4025L8.56226 20.6638L8.61979 20.7944L8.73415 20.9533L8.89056 21.0986L8.94808 20.9972L8.84759 20.7797L8.7479 20.7068L8.6757 20.5039L8.46166 20.4025ZM5.66857 20.6147C6.53658 22.349 6.16187 24.5852 7.2877 26.2207C7.63926 26.732 8.13164 27.2219 8.58633 27.6336L8.56479 27.655C8.15318 27.4634 7.78192 27.1764 7.40722 26.8653C5.43745 25.2273 2.475 25.0184 1.29589 22.349C1.61559 24.3085 3.17204 26.0445 4.85133 27.1445C6.44811 28.1905 8.49523 28.0744 10.2691 28.6597C8.6301 27.337 8.38179 25.3518 7.65037 23.6124C7.1966 22.5312 6.45671 21.5584 5.66857 20.6147ZM34.4021 20.6147C33.6132 21.5584 32.8741 22.5312 32.4195 23.6124C31.689 25.3518 31.4406 27.337 29.8017 28.6597C31.5756 28.0744 33.6218 28.1905 35.2195 27.1445C36.8988 26.0445 38.4543 24.3085 38.7748 22.349C37.5957 25.0184 34.6324 25.2273 32.6636 26.8653C32.2889 27.1764 31.9176 27.4634 31.5059 27.655L31.4845 27.6336C31.939 27.2219 32.4306 26.732 32.783 26.2207C33.9088 24.5852 33.5341 22.349 34.4021 20.6147ZM11.9913 21.2421C12.1176 21.2447 12.286 21.3865 12.3049 21.4466C12.3162 21.4793 12.3557 21.5206 12.4012 21.5549L12.1898 21.7663C12.0575 21.6291 11.9286 21.4887 11.803 21.3452H11.8624C11.8847 21.2679 11.9337 21.2404 11.9913 21.2421ZM20.4513 22.0423C20.5398 22.0474 20.6309 22.0706 20.6903 22.1136C20.8475 22.2296 21.0615 22.1574 21.0615 22.1574L21.2197 22.349C20.887 22.3972 20.5493 22.4264 20.2056 22.4333V22.0904C20.2537 22.0543 20.3507 22.0362 20.4513 22.0423ZM27.8792 22.2503L29.6805 24.0516C28.6759 25.0321 27.5199 25.8581 26.2558 26.4983C24.3794 27.4499 22.3094 27.9577 20.2056 27.9825V25.4284C21.2334 25.4139 22.2544 25.2586 23.2401 24.9668L23.4902 25.0424L23.5615 25.2745L23.6759 25.2599L23.7618 25.1877L24.1046 25.1731L24.2765 25.0132L24.4622 24.9849L25.8089 23.8392C26.5581 23.3915 27.2529 22.8582 27.8792 22.2503ZM21.3889 22.6704L21.419 22.7375L21.6622 22.8097L21.8333 22.8536L21.8908 23.0994L22.0189 23.1139L22.0619 23.2738C22.2191 23.3898 22.0189 23.6364 22.0189 23.6364V23.9553L22.1332 24.0128L22.1186 24.1297L22.305 24.318L22.5191 24.3325L22.874 24.7116C22.0036 24.9473 21.1072 25.0734 20.2056 25.0871V22.7745C20.6019 22.7668 20.9973 22.7321 21.3889 22.6706V22.6704ZM17.935 22.9068L17.8491 22.979L17.8069 23.0151L17.8516 23.0478L17.9522 23.12L18.002 23.0503L17.9461 23.01L17.99 22.9739L17.935 22.9068ZM18.9533 23.945L18.9147 24.0232L19.0041 24.0679L18.9749 24.098L19.0358 24.1599L19.1072 24.0868L19.1493 24.0447L19.096 24.0172L18.9533 23.945ZM11.7188 24.6797L11.834 24.8543L11.8477 24.9849L11.9904 25.0279L12.048 25.1146L12.1477 25.0571L12.0763 24.868L11.8907 24.7091L11.7188 24.6797ZM8.50211 24.8422C9.57373 26.2843 9.87888 28.3796 11.8374 29.1169C12.1838 29.2476 12.5817 29.269 12.8817 29.4599C12.5043 29.5174 12.1743 29.4006 11.8229 29.3258C9.29964 28.7887 6.21688 29.4805 4.32617 27.3294C5.04384 28.7354 6.52111 29.8449 7.94085 30.3132C10.1401 31.0395 12.433 30.2298 14.4999 29.7168C14.7981 29.6429 15.1599 29.667 15.4358 29.5656C14.285 29.3318 13.1756 28.9829 12.2843 28.1682C11.0047 26.9976 9.87109 25.7515 8.50211 24.8422ZM31.5678 24.8422C30.1996 25.7515 29.0661 26.9976 27.7856 28.1682C26.8952 28.9829 25.7857 29.3318 24.634 29.5656C24.9108 29.667 25.2726 29.6429 25.5708 29.7168C27.6377 30.2299 29.9297 31.0395 32.1298 30.3132C33.5496 29.8448 35.027 28.7354 35.7445 27.3294C33.8538 29.4804 30.7711 28.7887 28.247 29.3257C27.8964 29.4006 27.5663 29.5174 27.1891 29.4598C27.489 29.269 27.887 29.2476 28.2333 29.1169C30.1919 28.3796 30.4969 26.2843 31.5678 24.8422ZM17.9564 29.5106C16.0193 29.5106 14.2894 30.4465 12.5895 31.1512C11.0519 31.7897 9.01259 31.6634 7.65037 30.724C8.32415 31.5697 9.22653 32.0905 10.1573 32.4438C11.8873 33.1338 13.9069 32.6044 15.3791 31.6634C16.4396 30.9853 17.3489 30.0245 18.6113 30.0245C18.8347 30.0245 19.0591 30.0503 19.2843 30.0975C19.5307 29.9984 19.7813 29.9101 20.0354 29.8328C19.3573 29.6282 18.6611 29.5106 17.9564 29.5106ZM20.0354 29.8328C20.2895 29.9101 20.5401 29.9984 20.7865 30.0975C21.0117 30.0501 21.2359 30.0244 21.4594 30.0244C22.7219 30.0244 23.6312 30.9852 24.6917 31.6633C26.1638 32.6043 28.1834 33.1337 29.9135 32.4437C30.8441 32.0904 31.7457 31.5696 32.4195 30.7239C31.0582 31.6633 29.018 31.7896 27.4804 31.1511C25.7814 30.4464 24.0514 29.5104 22.1143 29.5104C21.4095 29.5104 20.7134 29.6282 20.0354 29.8328ZM20.7865 30.0975C20.5373 30.1498 20.2863 30.2289 20.0354 30.332C21.6209 30.98 23.2118 32.5502 24.6143 34C24.897 33.7722 25.197 33.5248 25.4281 33.2601C24.1709 32.0586 22.5586 30.8081 20.7865 30.0975ZM20.0354 30.332C19.7844 30.2289 19.5335 30.1498 19.2843 30.0975C17.5112 30.8081 15.8999 32.0586 14.6425 33.2601C14.8738 33.5248 15.1737 33.7723 15.4555 34C16.859 32.5502 18.4497 30.98 20.0354 30.332Z" fill="#2C3242"/>
<path d="M19.2866 29.911C19.339 29.8519 19.9263 29.6368 20.0377 29.6463C20.1672 29.643 20.7889 29.8787 20.7889 29.911C20.7768 29.966 20.1183 30.159 20.0377 30.1456C19.9948 30.1482 19.2906 29.9404 19.2866 29.911Z" fill="#2C3242"/>
</svg>
